# Blender 5.0.1
# www.blender.org
mtllib r가a마t솥.mtl
o Cylinder
v 0.000000 -0.140899 -0.750336
v 0.000000 0.254668 -0.789775
v 0.154077 0.254668 -0.774600
v 0.146383 -0.140898 -0.735919
v 0.302234 0.254668 -0.729657
v 0.287141 -0.140898 -0.693220
v 0.438775 0.254668 -0.656674
v 0.416864 -0.140898 -0.623882
v 0.558455 0.254668 -0.558455
v 0.530568 -0.140898 -0.530568
v 0.656674 0.254668 -0.438776
v 0.623882 -0.140898 -0.416864
v 0.729657 0.254668 -0.302234
v 0.693220 -0.140898 -0.287141
v 0.774600 0.254668 -0.154077
v 0.735919 -0.140898 -0.146383
v 0.789775 0.254668 -0.000000
v 0.750336 -0.140898 -0.000000
v 0.774600 0.254668 0.154077
v 0.735919 -0.140898 0.146383
v 0.729657 0.254668 0.302234
v 0.693220 -0.140898 0.287141
v 0.656674 0.254668 0.438775
v 0.623882 -0.140898 0.416864
v 0.558455 0.254668 0.558455
v 0.530568 -0.140898 0.530568
v 0.438775 0.254668 0.656674
v 0.416864 -0.140898 0.623881
v 0.302234 0.254668 0.729657
v 0.287141 -0.140898 0.693220
v 0.154077 0.254668 0.774600
v 0.146383 -0.140898 0.735919
v 0.000000 0.254668 0.789775
v 0.000000 -0.140898 0.750336
v -0.154077 0.254668 0.774600
v -0.146383 -0.140898 0.735919
v -0.302234 0.254668 0.729657
v -0.287141 -0.140898 0.693220
v -0.438775 0.254668 0.656674
v -0.416864 -0.140898 0.623881
v -0.558455 0.254668 0.558455
v -0.530568 -0.140898 0.530568
v -0.656674 0.254668 0.438775
v -0.623882 -0.140898 0.416864
v -0.729657 0.254668 0.302234
v -0.693220 -0.140898 0.287141
v -0.774600 0.254668 0.154077
v -0.735919 -0.140898 0.146383
v -0.789775 0.254668 -0.000000
v -0.750336 -0.140898 -0.000000
v -0.774600 0.254668 -0.154077
v -0.735919 -0.140898 -0.146383
v -0.729657 0.254668 -0.302234
v -0.693220 -0.140898 -0.287141
v -0.656674 0.254668 -0.438776
v -0.623882 -0.140898 -0.416864
v -0.558455 0.254668 -0.558455
v -0.530568 -0.140898 -0.530568
v -0.438775 0.254668 -0.656674
v -0.416864 -0.140898 -0.623882
v -0.302234 0.254668 -0.729657
v -0.287141 -0.140898 -0.693220
v -0.154077 0.254668 -0.774600
v -0.146383 -0.140898 -0.735919
v 0.000000 -0.140899 -0.750336
v 0.000000 0.254668 -0.789775
v 0.154077 0.254668 -0.774600
v 0.146383 -0.140898 -0.735919
v 0.302234 0.254668 -0.729657
v 0.287141 -0.140898 -0.693220
v 0.438775 0.254668 -0.656674
v 0.416864 -0.140898 -0.623882
v 0.558455 0.254668 -0.558455
v 0.530568 -0.140898 -0.530568
v 0.656674 0.254668 -0.438776
v 0.623882 -0.140898 -0.416864
v 0.729657 0.254668 -0.302234
v 0.693220 -0.140898 -0.287141
v 0.774600 0.254668 -0.154077
v 0.735919 -0.140898 -0.146383
v 0.789775 0.254668 -0.000000
v 0.750336 -0.140898 -0.000000
v 0.774600 0.254668 0.154077
v 0.735919 -0.140898 0.146383
v 0.729657 0.254668 0.302234
v 0.693220 -0.140898 0.287141
v 0.656674 0.254668 0.438775
v 0.623882 -0.140898 0.416864
v 0.558455 0.254668 0.558455
v 0.530568 -0.140898 0.530568
v 0.438775 0.254668 0.656674
v 0.416864 -0.140898 0.623881
v 0.302234 0.254668 0.729657
v 0.287141 -0.140898 0.693220
v 0.154077 0.254668 0.774600
v 0.146383 -0.140898 0.735919
v 0.000000 0.254668 0.789775
v 0.000000 -0.140898 0.750336
v -0.154077 0.254668 0.774600
v -0.146383 -0.140898 0.735919
v -0.302234 0.254668 0.729657
v -0.287141 -0.140898 0.693220
v -0.438775 0.254668 0.656674
v -0.416864 -0.140898 0.623881
v -0.558455 0.254668 0.558455
v -0.530568 -0.140898 0.530568
v -0.656674 0.254668 0.438775
v -0.623882 -0.140898 0.416864
v -0.729657 0.254668 0.302234
v -0.693220 -0.140898 0.287141
v -0.774600 0.254668 0.154077
v -0.735919 -0.140898 0.146383
v -0.789775 0.254668 -0.000000
v -0.750336 -0.140898 -0.000000
v -0.774600 0.254668 -0.154077
v -0.735919 -0.140898 -0.146383
v -0.729657 0.254668 -0.302234
v -0.693220 -0.140898 -0.287141
v -0.656674 0.254668 -0.438776
v -0.623882 -0.140898 -0.416864
v -0.558455 0.254668 -0.558455
v -0.530568 -0.140898 -0.530568
v -0.438775 0.254668 -0.656674
v -0.416864 -0.140898 -0.623882
v -0.302234 0.254668 -0.729657
v -0.287141 -0.140898 -0.693220
v -0.154077 0.254668 -0.774600
v -0.146383 -0.140898 -0.735919
v 0.000000 -0.049949 -0.821247
v 0.000000 0.056885 -0.855710
v 0.000000 0.163718 -0.842550
v 0.164373 0.163718 -0.826361
v 0.166941 0.056885 -0.839268
v 0.160217 -0.049949 -0.805467
v 0.322430 0.163718 -0.778415
v 0.327466 0.056885 -0.790573
v 0.314278 -0.049949 -0.758734
v 0.468096 0.163718 -0.700555
v 0.475407 0.056885 -0.711497
v 0.456261 -0.049949 -0.682842
v 0.595773 0.163718 -0.595773
v 0.605079 0.056885 -0.605079
v 0.580710 -0.049949 -0.580710
v 0.700555 0.163718 -0.468096
v 0.711497 0.056885 -0.475407
v 0.682842 -0.049949 -0.456261
v 0.778415 0.163718 -0.322430
v 0.790573 0.056885 -0.327466
v 0.758734 -0.049949 -0.314278
v 0.826361 0.163718 -0.164373
v 0.839268 0.056885 -0.166941
v 0.805467 -0.049949 -0.160217
v 0.842551 0.163718 -0.000000
v 0.855710 0.056885 -0.000000
v 0.821247 -0.049949 -0.000000
v 0.826361 0.163718 0.164373
v 0.839268 0.056885 0.166941
v 0.805467 -0.049949 0.160217
v 0.778415 0.163718 0.322430
v 0.790573 0.056885 0.327466
v 0.758734 -0.049949 0.314278
v 0.700555 0.163718 0.468096
v 0.711497 0.056885 0.475407
v 0.682842 -0.049949 0.456261
v 0.595773 0.163718 0.595773
v 0.605079 0.056885 0.605079
v 0.580710 -0.049949 0.580710
v 0.468096 0.163718 0.700555
v 0.475407 0.056885 0.711497
v 0.456261 -0.049949 0.682842
v 0.322430 0.163718 0.778415
v 0.327466 0.056885 0.790573
v 0.314278 -0.049949 0.758734
v 0.164373 0.163718 0.826361
v 0.166941 0.056885 0.839268
v 0.160217 -0.049949 0.805467
v 0.000000 0.163718 0.842551
v 0.000000 0.056885 0.855710
v 0.000000 -0.049949 0.821247
v -0.164373 0.163718 0.826361
v -0.166941 0.056885 0.839268
v -0.160217 -0.049949 0.805467
v -0.322430 0.163718 0.778415
v -0.327466 0.056885 0.790573
v -0.314278 -0.049949 0.758734
v -0.468096 0.163718 0.700555
v -0.475407 0.056885 0.711497
v -0.456261 -0.049949 0.682842
v -0.595773 0.163718 0.595773
v -0.605079 0.056885 0.605079
v -0.580710 -0.049949 0.580710
v -0.700555 0.163718 0.468096
v -0.711497 0.056885 0.475407
v -0.682842 -0.049949 0.456261
v -0.778415 0.163718 0.322430
v -0.790573 0.056885 0.327466
v -0.758734 -0.049949 0.314278
v -0.826361 0.163718 0.164373
v -0.839268 0.056885 0.166941
v -0.805467 -0.049949 0.160217
v -0.842551 0.163718 -0.000000
v -0.855710 0.056885 -0.000000
v -0.821247 -0.049949 -0.000000
v -0.826361 0.163718 -0.164373
v -0.839268 0.056885 -0.166941
v -0.805467 -0.049949 -0.160217
v -0.778415 0.163718 -0.322430
v -0.790573 0.056885 -0.327466
v -0.758734 -0.049949 -0.314278
v -0.700555 0.163718 -0.468096
v -0.711497 0.056885 -0.475407
v -0.682842 -0.049949 -0.456261
v -0.595773 0.163718 -0.595773
v -0.605079 0.056885 -0.605079
v -0.580710 -0.049949 -0.580710
v -0.468096 0.163718 -0.700555
v -0.475407 0.056885 -0.711497
v -0.456261 -0.049949 -0.682842
v -0.322430 0.163718 -0.778415
v -0.327466 0.056885 -0.790573
v -0.314278 -0.049949 -0.758734
v -0.164373 0.163718 -0.826361
v -0.166941 0.056885 -0.839268
v -0.160217 -0.049949 -0.805467
v 0.000000 0.532462 -0.700122
v 0.136587 0.532462 -0.686669
v 0.267925 0.532462 -0.646828
v 0.388967 0.532462 -0.582130
v 0.495061 0.532462 -0.495061
v 0.582130 0.532462 -0.388967
v 0.646828 0.532462 -0.267925
v 0.686669 0.532462 -0.136587
v 0.700122 0.532462 -0.000000
v 0.686669 0.532462 0.136587
v 0.646828 0.532462 0.267925
v 0.582130 0.532462 0.388967
v 0.495061 0.532462 0.495061
v 0.388967 0.532462 0.582130
v 0.267925 0.532462 0.646828
v 0.136587 0.532462 0.686669
v 0.000000 0.532462 0.700122
v -0.136587 0.532462 0.686669
v -0.267925 0.532462 0.646828
v -0.388967 0.532462 0.582130
v -0.495061 0.532462 0.495061
v -0.582130 0.532462 0.388967
v -0.646828 0.532462 0.267925
v -0.686669 0.532462 0.136587
v -0.700122 0.532462 -0.000000
v -0.686669 0.532462 -0.136587
v -0.646828 0.532462 -0.267925
v -0.582130 0.532462 -0.388967
v -0.495061 0.532462 -0.495061
v -0.388967 0.532462 -0.582130
v -0.267925 0.532462 -0.646828
v -0.136587 0.532462 -0.686669
v 0.000000 0.553497 -0.686344
v 0.133899 0.553497 -0.673156
v 0.262652 0.553497 -0.634099
v 0.381312 0.553497 -0.570674
v 0.485319 0.553497 -0.485319
v 0.570674 0.553497 -0.381312
v 0.634099 0.553497 -0.262652
v 0.673156 0.553497 -0.133899
v 0.686344 0.553497 -0.000000
v 0.673156 0.553497 0.133899
v 0.634099 0.553497 0.262652
v 0.570674 0.553497 0.381312
v 0.485319 0.553497 0.485319
v 0.381312 0.553497 0.570674
v 0.262652 0.553497 0.634099
v 0.133899 0.553497 0.673156
v 0.000000 0.553497 0.686344
v -0.133899 0.553497 0.673156
v -0.262652 0.553497 0.634099
v -0.381312 0.553497 0.570674
v -0.485319 0.553497 0.485319
v -0.570674 0.553497 0.381312
v -0.634099 0.553497 0.262652
v -0.673156 0.553497 0.133899
v -0.686344 0.553497 -0.000000
v -0.673156 0.553497 -0.133899
v -0.634099 0.553497 -0.262652
v -0.570674 0.553497 -0.381312
v -0.485319 0.553497 -0.485319
v -0.381312 0.553497 -0.570674
v -0.262652 0.553497 -0.634099
v -0.133899 0.553497 -0.673156
v 0.000000 0.532061 -0.727326
v 0.141894 0.532061 -0.713350
v 0.278335 0.532061 -0.671961
v 0.404081 0.532061 -0.604749
v 0.514297 0.532061 -0.514297
v 0.604749 0.532061 -0.404081
v 0.671961 0.532061 -0.278335
v 0.713350 0.532061 -0.141894
v 0.727326 0.532061 -0.000000
v 0.713350 0.532061 0.141894
v 0.671961 0.532061 0.278335
v 0.604749 0.532061 0.404081
v 0.514297 0.532061 0.514297
v 0.404081 0.532061 0.604749
v 0.278335 0.532061 0.671961
v 0.141894 0.532061 0.713350
v 0.000000 0.532061 0.727326
v -0.141894 0.532061 0.713350
v -0.278335 0.532061 0.671961
v -0.404081 0.532061 0.604749
v -0.514297 0.532061 0.514297
v -0.604749 0.532061 0.404081
v -0.671961 0.532061 0.278335
v -0.713350 0.532061 0.141894
v -0.727326 0.532061 -0.000000
v -0.713350 0.532061 -0.141894
v -0.671961 0.532061 -0.278335
v -0.604749 0.532061 -0.404081
v -0.514297 0.532061 -0.514297
v -0.404081 0.532061 -0.604749
v -0.278335 0.532061 -0.671961
v -0.141894 0.532061 -0.713350
v 0.140545 0.553497 -0.706565
v 0.000000 0.553497 -0.720408
v 0.275688 0.553497 -0.665570
v 0.400237 0.553497 -0.598997
v 0.509405 0.553497 -0.509405
v 0.598997 0.553497 -0.400237
v 0.665570 0.553497 -0.275688
v 0.706565 0.553497 -0.140545
v 0.720408 0.553497 -0.000000
v 0.706565 0.553497 0.140545
v 0.665570 0.553497 0.275688
v 0.598997 0.553497 0.400237
v 0.509405 0.553497 0.509405
v 0.400237 0.553497 0.598997
v 0.275688 0.553497 0.665570
v 0.140545 0.553497 0.706565
v 0.000000 0.553497 0.720408
v -0.140545 0.553497 0.706565
v -0.275688 0.553497 0.665570
v -0.400237 0.553497 0.598997
v -0.509405 0.553497 0.509405
v -0.598997 0.553497 0.400237
v -0.665570 0.553497 0.275688
v -0.706565 0.553497 0.140545
v -0.720408 0.553497 -0.000000
v -0.706565 0.553497 -0.140545
v -0.665570 0.553497 -0.275688
v -0.598997 0.553497 -0.400237
v -0.509405 0.553497 -0.509405
v -0.400237 0.553497 -0.598997
v -0.275688 0.553497 -0.665570
v -0.140545 0.553497 -0.706565
v 0.133899 0.553497 -0.673156
v 0.000000 0.553497 -0.686344
v 0.262652 0.553497 -0.634099
v 0.381312 0.553497 -0.570674
v 0.485319 0.553497 -0.485319
v 0.570674 0.553497 -0.381312
v 0.634099 0.553497 -0.262652
v 0.673156 0.553497 -0.133899
v 0.686344 0.553497 -0.000000
v 0.673156 0.553497 0.133899
v 0.634099 0.553497 0.262652
v 0.570674 0.553497 0.381312
v 0.485319 0.553497 0.485319
v 0.381312 0.553497 0.570674
v 0.262652 0.553497 0.634099
v 0.133899 0.553497 0.673156
v 0.000000 0.553497 0.686344
v -0.133899 0.553497 0.673156
v -0.262652 0.553497 0.634099
v -0.381312 0.553497 0.570674
v -0.485319 0.553497 0.485319
v -0.570674 0.553497 0.381312
v -0.634099 0.553497 0.262652
v -0.673156 0.553497 0.133899
v -0.686344 0.553497 -0.000000
v -0.673156 0.553497 -0.133899
v -0.634099 0.553497 -0.262652
v -0.570674 0.553497 -0.381312
v -0.485319 0.553497 -0.485319
v -0.381312 0.553497 -0.570674
v -0.262652 0.553497 -0.634099
v -0.133899 0.553497 -0.673156
v 0.122097 0.179774 -0.613824
v 0.000000 0.179774 -0.625850
v 0.239502 0.179774 -0.578210
v 0.347703 0.179774 -0.520375
v 0.442543 0.179774 -0.442543
v 0.520375 0.179774 -0.347703
v 0.578210 0.179774 -0.239502
v 0.613824 0.179774 -0.122097
v 0.625850 0.179774 -0.000000
v 0.613824 0.179774 0.122097
v 0.578210 0.179774 0.239502
v 0.520375 0.179774 0.347703
v 0.442543 0.179774 0.442543
v 0.347703 0.179774 0.520375
v 0.239502 0.179774 0.578210
v 0.122097 0.179774 0.613824
v 0.000000 0.179774 0.625850
v -0.122097 0.179774 0.613824
v -0.239502 0.179774 0.578210
v -0.347703 0.179774 0.520375
v -0.442543 0.179774 0.442543
v -0.520375 0.179774 0.347703
v -0.578210 0.179774 0.239502
v -0.613824 0.179774 0.122097
v -0.625850 0.179774 -0.000000
v -0.613824 0.179774 -0.122097
v -0.578210 0.179774 -0.239502
v -0.520375 0.179774 -0.347703
v -0.442543 0.179774 -0.442543
v -0.347703 0.179774 -0.520375
v -0.239502 0.179774 -0.578210
v -0.122097 0.179774 -0.613824
v 0.081936 0.030885 -0.411920
v 0.000000 0.030885 -0.419990
v 0.160723 0.030885 -0.388020
v 0.233334 0.030885 -0.349209
v 0.296978 0.030885 -0.296978
v 0.349209 0.030885 -0.233334
v 0.388020 0.030885 -0.160723
v 0.411920 0.030885 -0.081936
v 0.419990 0.030885 -0.000000
v 0.411920 0.030885 0.081936
v 0.388020 0.030885 0.160723
v 0.349209 0.030885 0.233334
v 0.296978 0.030885 0.296978
v 0.233334 0.030885 0.349209
v 0.160723 0.030885 0.388020
v 0.081936 0.030885 0.411920
v 0.000000 0.030885 0.419990
v -0.081936 0.030885 0.411920
v -0.160723 0.030885 0.388020
v -0.233334 0.030885 0.349209
v -0.296978 0.030885 0.296978
v -0.349209 0.030885 0.233334
v -0.388020 0.030885 0.160723
v -0.411920 0.030885 0.081936
v -0.419990 0.030885 -0.000000
v -0.411920 0.030885 -0.081936
v -0.388020 0.030885 -0.160723
v -0.349209 0.030885 -0.233334
v -0.296978 0.030885 -0.296978
v -0.233334 0.030885 -0.349209
v -0.160723 0.030885 -0.388020
v -0.081936 0.030885 -0.411920
v 0.119457 -0.405238 -0.600549
v 0.234323 -0.405238 -0.565705
v 0.340184 -0.405238 -0.509121
v 0.432972 -0.405238 -0.432972
v 0.509121 -0.405238 -0.340184
v 0.565705 -0.405238 -0.234323
v 0.600549 -0.405238 -0.119457
v 0.612315 -0.405238 -0.000000
v 0.600549 -0.405238 0.119457
v 0.565705 -0.405238 0.234323
v 0.509121 -0.405238 0.340184
v 0.432972 -0.405238 0.432972
v 0.340184 -0.405238 0.509121
v 0.234323 -0.405238 0.565705
v 0.119457 -0.405238 0.600549
v 0.000000 -0.405238 0.612315
v -0.119457 -0.405238 0.600549
v -0.234323 -0.405238 0.565705
v -0.340184 -0.405238 0.509121
v -0.432972 -0.405238 0.432972
v -0.509121 -0.405238 0.340184
v -0.565705 -0.405238 0.234323
v -0.600549 -0.405238 0.119457
v -0.612315 -0.405238 -0.000000
v -0.600549 -0.405238 -0.119457
v -0.565705 -0.405238 -0.234323
v -0.509121 -0.405238 -0.340184
v -0.432972 -0.405238 -0.432972
v -0.340184 -0.405238 -0.509121
v -0.234323 -0.405238 -0.565705
v -0.119457 -0.405238 -0.600549
v 0.000000 -0.405238 -0.612315
v 0.000000 -0.440036 -0.619237
v 0.120807 -0.440036 -0.607339
v 0.236972 -0.440036 -0.572101
v 0.344030 -0.440036 -0.514877
v 0.437867 -0.440036 -0.437867
v 0.514877 -0.440036 -0.344030
v 0.572101 -0.440036 -0.236972
v 0.607339 -0.440036 -0.120807
v 0.619237 -0.440036 -0.000000
v 0.607339 -0.440036 0.120807
v 0.572101 -0.440036 0.236972
v 0.514877 -0.440036 0.344030
v 0.437867 -0.440036 0.437867
v 0.344030 -0.440036 0.514877
v 0.236972 -0.440036 0.572101
v 0.120807 -0.440036 0.607339
v 0.000000 -0.440036 0.619237
v -0.120807 -0.440036 0.607339
v -0.236972 -0.440036 0.572101
v -0.344030 -0.440036 0.514877
v -0.437867 -0.440036 0.437867
v -0.514877 -0.440036 0.344030
v -0.572101 -0.440036 0.236972
v -0.607339 -0.440036 0.120807
v -0.619237 -0.440036 -0.000000
v -0.607339 -0.440036 -0.120807
v -0.572101 -0.440036 -0.236972
v -0.514877 -0.440036 -0.344030
v -0.437867 -0.440036 -0.437867
v -0.344030 -0.440036 -0.514877
v -0.236972 -0.440036 -0.572101
v -0.120807 -0.440036 -0.607339
v 0.124424 -0.404530 -0.625522
v 0.244066 -0.404530 -0.589229
v 0.354330 -0.404530 -0.530292
v 0.450976 -0.404530 -0.450976
v 0.530292 -0.404530 -0.354330
v 0.589229 -0.404530 -0.244066
v 0.625522 -0.404530 -0.124424
v 0.637776 -0.404530 -0.000000
v 0.625522 -0.404530 0.124424
v 0.589229 -0.404530 0.244066
v 0.530292 -0.404530 0.354330
v 0.450976 -0.404530 0.450976
v 0.354330 -0.404530 0.530292
v 0.244066 -0.404530 0.589229
v 0.124424 -0.404530 0.625522
v 0.000000 -0.404530 0.637776
v -0.124424 -0.404530 0.625522
v -0.244066 -0.404530 0.589229
v -0.354330 -0.404530 0.530292
v -0.450976 -0.404530 0.450976
v -0.530292 -0.404530 0.354330
v -0.589229 -0.404530 0.244066
v -0.625522 -0.404530 0.124424
v -0.637776 -0.404530 -0.000000
v -0.625522 -0.404530 -0.124424
v -0.589229 -0.404530 -0.244066
v -0.530292 -0.404530 -0.354330
v -0.450976 -0.404530 -0.450976
v -0.354330 -0.404530 -0.530292
v -0.244066 -0.404530 -0.589229
v -0.124424 -0.404530 -0.625522
v 0.000000 -0.404530 -0.637776
vn -0.0000 0.5414 -0.8408
vn -0.0000 0.8135 -0.5816
vn 0.1135 0.8135 -0.5704
vn 0.1640 0.5414 -0.8246
vn 0.2226 0.8135 -0.5373
vn 0.3217 0.5414 -0.7768
vn 0.3231 0.8135 -0.4836
vn 0.4671 0.5414 -0.6991
vn 0.4112 0.8135 -0.4112
vn 0.5945 0.5414 -0.5945
vn 0.4836 0.8135 -0.3231
vn 0.6991 0.5414 -0.4671
vn 0.5373 0.8135 -0.2226
vn 0.7768 0.5414 -0.3217
vn 0.5704 0.8135 -0.1135
vn 0.8246 0.5414 -0.1640
vn 0.5816 0.8135 -0.0000
vn 0.8408 0.5414 -0.0000
vn 0.5704 0.8135 0.1135
vn 0.8246 0.5414 0.1640
vn 0.5373 0.8135 0.2226
vn 0.7768 0.5414 0.3217
vn 0.4836 0.8135 0.3231
vn 0.6991 0.5414 0.4671
vn 0.4112 0.8135 0.4112
vn 0.5945 0.5414 0.5945
vn 0.3231 0.8135 0.4836
vn 0.4671 0.5414 0.6991
vn 0.2226 0.8135 0.5373
vn 0.3217 0.5414 0.7768
vn 0.1135 0.8135 0.5704
vn 0.1640 0.5414 0.8246
vn -0.0000 0.8135 0.5816
vn -0.0000 0.5414 0.8408
vn -0.1135 0.8135 0.5704
vn -0.1640 0.5414 0.8246
vn -0.2226 0.8135 0.5373
vn -0.3217 0.5414 0.7768
vn -0.3231 0.8135 0.4836
vn -0.4671 0.5414 0.6991
vn -0.4112 0.8135 0.4112
vn -0.5945 0.5414 0.5945
vn -0.4836 0.8135 0.3231
vn -0.6991 0.5414 0.4671
vn -0.5373 0.8135 0.2226
vn -0.7768 0.5414 0.3217
vn -0.5704 0.8135 0.1135
vn -0.8246 0.5414 0.1640
vn -0.5816 0.8135 -0.0000
vn -0.8408 0.5414 -0.0000
vn -0.5704 0.8135 -0.1135
vn -0.8246 0.5414 -0.1640
vn -0.5373 0.8135 -0.2226
vn -0.7768 0.5414 -0.3217
vn -0.4836 0.8135 -0.3231
vn -0.6991 0.5414 -0.4671
vn -0.4112 0.8135 -0.4112
vn -0.5945 0.5414 -0.5945
vn -0.3231 0.8135 -0.4836
vn -0.4671 0.5414 -0.6991
vn -0.2226 0.8135 -0.5373
vn -0.3217 0.5414 -0.7768
vn -0.1135 0.8135 -0.5704
vn -0.1640 0.5414 -0.8246
vn -0.0000 0.4067 -0.9136
vn -0.0000 0.8626 -0.5058
vn 0.0987 0.8626 -0.4961
vn 0.1782 0.4067 -0.8960
vn 0.1936 0.8626 -0.4673
vn 0.3496 0.4067 -0.8440
vn 0.2810 0.8626 -0.4206
vn 0.5075 0.4067 -0.7596
vn 0.3577 0.8626 -0.3577
vn 0.6460 0.4067 -0.6460
vn 0.4206 0.8626 -0.2810
vn 0.7596 0.4067 -0.5075
vn 0.4673 0.8626 -0.1936
vn 0.8440 0.4067 -0.3496
vn 0.4961 0.8626 -0.0987
vn 0.8960 0.4067 -0.1782
vn 0.5058 0.8626 -0.0000
vn 0.9136 0.4067 -0.0000
vn 0.4961 0.8626 0.0987
vn 0.8960 0.4067 0.1782
vn 0.4673 0.8626 0.1936
vn 0.8440 0.4067 0.3496
vn 0.4206 0.8626 0.2810
vn 0.7596 0.4067 0.5075
vn 0.3577 0.8626 0.3577
vn 0.6460 0.4067 0.6460
vn 0.2810 0.8626 0.4206
vn 0.5075 0.4067 0.7596
vn 0.1936 0.8626 0.4673
vn 0.3496 0.4067 0.8440
vn 0.0987 0.8626 0.4961
vn 0.1782 0.4067 0.8960
vn -0.0000 0.8626 0.5058
vn -0.0000 0.4067 0.9136
vn -0.0987 0.8626 0.4961
vn -0.1782 0.4067 0.8960
vn -0.1936 0.8626 0.4673
vn -0.3496 0.4067 0.8440
vn -0.2810 0.8626 0.4206
vn -0.5075 0.4067 0.7596
vn -0.3577 0.8626 0.3577
vn -0.6460 0.4067 0.6460
vn -0.4206 0.8626 0.2810
vn -0.7596 0.4067 0.5075
vn -0.4673 0.8626 0.1936
vn -0.8440 0.4067 0.3496
vn -0.4961 0.8626 0.0987
vn -0.8960 0.4067 0.1782
vn -0.5058 0.8626 -0.0000
vn -0.9136 0.4067 -0.0000
vn -0.4961 0.8626 -0.0987
vn -0.8960 0.4067 -0.1782
vn -0.4673 0.8626 -0.1936
vn -0.8440 0.4067 -0.3496
vn -0.4206 0.8626 -0.2810
vn -0.7596 0.4067 -0.5075
vn -0.3577 0.8626 -0.3577
vn -0.6460 0.4067 -0.6460
vn -0.2810 0.8626 -0.4206
vn -0.5075 0.4067 -0.7596
vn -0.1936 0.8626 -0.4673
vn -0.3496 0.4067 -0.8440
vn -0.0987 0.8626 -0.4961
vn -0.1782 0.4067 -0.8960
vn -0.0000 -0.4637 -0.8860
vn -0.0000 -0.0934 -0.9956
vn -0.0000 0.3148 -0.9492
vn 0.1852 0.3148 -0.9309
vn 0.1942 -0.0934 -0.9765
vn 0.1729 -0.4637 -0.8690
vn 0.3632 0.3148 -0.8769
vn 0.3810 -0.0934 -0.9198
vn 0.3391 -0.4637 -0.8186
vn 0.5273 0.3148 -0.7892
vn 0.5531 -0.0934 -0.8278
vn 0.4922 -0.4637 -0.7367
vn 0.6712 0.3148 -0.6712
vn 0.7040 -0.0934 -0.7040
vn 0.6265 -0.4637 -0.6265
vn 0.7892 0.3148 -0.5273
vn 0.8278 -0.0934 -0.5531
vn 0.7367 -0.4637 -0.4922
vn 0.8769 0.3148 -0.3632
vn 0.9198 -0.0934 -0.3810
vn 0.8186 -0.4637 -0.3391
vn 0.9309 0.3148 -0.1852
vn 0.9765 -0.0934 -0.1942
vn 0.8690 -0.4637 -0.1729
vn 0.9492 0.3148 -0.0000
vn 0.9956 -0.0934 -0.0000
vn 0.8860 -0.4637 -0.0000
vn 0.9309 0.3148 0.1852
vn 0.9765 -0.0934 0.1942
vn 0.8690 -0.4637 0.1729
vn 0.8769 0.3148 0.3632
vn 0.9198 -0.0934 0.3810
vn 0.8186 -0.4637 0.3391
vn 0.7892 0.3148 0.5273
vn 0.8278 -0.0934 0.5531
vn 0.7367 -0.4637 0.4922
vn 0.6712 0.3148 0.6712
vn 0.7040 -0.0934 0.7040
vn 0.6265 -0.4637 0.6265
vn 0.5273 0.3148 0.7892
vn 0.5531 -0.0934 0.8278
vn 0.4922 -0.4637 0.7367
vn 0.3632 0.3148 0.8769
vn 0.3810 -0.0934 0.9198
vn 0.3391 -0.4637 0.8186
vn 0.1852 0.3148 0.9309
vn 0.1942 -0.0934 0.9765
vn 0.1729 -0.4637 0.8690
vn -0.0000 0.3148 0.9492
vn -0.0000 -0.0934 0.9956
vn -0.0000 -0.4637 0.8860
vn -0.1852 0.3148 0.9309
vn -0.1942 -0.0934 0.9765
vn -0.1729 -0.4637 0.8690
vn -0.3632 0.3148 0.8769
vn -0.3810 -0.0934 0.9198
vn -0.3391 -0.4637 0.8186
vn -0.5273 0.3148 0.7892
vn -0.5531 -0.0934 0.8278
vn -0.4922 -0.4637 0.7367
vn -0.6712 0.3148 0.6712
vn -0.7040 -0.0934 0.7040
vn -0.6265 -0.4637 0.6265
vn -0.7892 0.3148 0.5273
vn -0.8278 -0.0934 0.5531
vn -0.7367 -0.4637 0.4922
vn -0.8769 0.3148 0.3632
vn -0.9198 -0.0934 0.3810
vn -0.8186 -0.4637 0.3391
vn -0.9309 0.3148 0.1852
vn -0.9765 -0.0934 0.1942
vn -0.8690 -0.4637 0.1729
vn -0.9492 0.3148 -0.0000
vn -0.9956 -0.0934 -0.0000
vn -0.8860 -0.4637 -0.0000
vn -0.9309 0.3148 -0.1852
vn -0.9765 -0.0934 -0.1942
vn -0.8690 -0.4637 -0.1729
vn -0.8769 0.3148 -0.3632
vn -0.9198 -0.0934 -0.3810
vn -0.8186 -0.4637 -0.3391
vn -0.7892 0.3148 -0.5273
vn -0.8278 -0.0934 -0.5531
vn -0.7367 -0.4637 -0.4922
vn -0.6712 0.3148 -0.6712
vn -0.7040 -0.0934 -0.7040
vn -0.6265 -0.4637 -0.6265
vn -0.5273 0.3148 -0.7892
vn -0.5531 -0.0934 -0.8278
vn -0.4922 -0.4637 -0.7367
vn -0.3632 0.3148 -0.8769
vn -0.3810 -0.0934 -0.9198
vn -0.3391 -0.4637 -0.8186
vn -0.1852 0.3148 -0.9309
vn -0.1942 -0.0934 -0.9765
vn -0.1729 -0.4637 -0.8690
vn -0.0000 -0.6200 -0.7846
vn 0.1531 -0.6200 -0.7695
vn 0.3003 -0.6200 -0.7249
vn 0.4359 -0.6200 -0.6524
vn 0.5548 -0.6200 -0.5548
vn 0.6524 -0.6200 -0.4359
vn 0.7249 -0.6200 -0.3003
vn 0.7695 -0.6200 -0.1531
vn 0.7846 -0.6200 -0.0000
vn 0.7695 -0.6200 0.1531
vn 0.7249 -0.6200 0.3003
vn 0.6524 -0.6200 0.4359
vn 0.5548 -0.6200 0.5548
vn 0.4359 -0.6200 0.6524
vn 0.3003 -0.6200 0.7249
vn 0.1531 -0.6200 0.7695
vn -0.0000 -0.6200 0.7846
vn -0.1531 -0.6200 0.7695
vn -0.3003 -0.6200 0.7249
vn -0.4359 -0.6200 0.6524
vn -0.5548 -0.6200 0.5548
vn -0.6524 -0.6200 0.4359
vn -0.7249 -0.6200 0.3003
vn -0.7695 -0.6200 0.1531
vn -0.7846 -0.6200 -0.0000
vn -0.7695 -0.6200 -0.1531
vn -0.7249 -0.6200 -0.3003
vn -0.6524 -0.6200 -0.4359
vn -0.5548 -0.6200 -0.5548
vn -0.4359 -0.6200 -0.6524
vn -0.3003 -0.6200 -0.7249
vn -0.1531 -0.6200 -0.7695
vn -0.0000 1.0000 -0.0000
vn -0.0000 -0.5714 -0.8207
vn 0.1601 -0.5714 -0.8049
vn 0.3141 -0.5714 -0.7582
vn 0.4559 -0.5714 -0.6824
vn 0.5803 -0.5714 -0.5803
vn 0.6824 -0.5714 -0.4559
vn 0.7582 -0.5714 -0.3141
vn 0.8049 -0.5714 -0.1601
vn 0.8207 -0.5714 -0.0000
vn 0.8049 -0.5714 0.1601
vn 0.7582 -0.5714 0.3141
vn 0.6824 -0.5714 0.4559
vn 0.5803 -0.5714 0.5803
vn 0.4559 -0.5714 0.6824
vn 0.3141 -0.5714 0.7582
vn 0.1601 -0.5714 0.8049
vn -0.0000 -0.5714 0.8207
vn -0.1601 -0.5714 0.8049
vn -0.3141 -0.5714 0.7582
vn -0.4559 -0.5714 0.6824
vn -0.5803 -0.5714 0.5803
vn -0.6824 -0.5714 0.4559
vn -0.7582 -0.5714 0.3141
vn -0.8049 -0.5714 0.1601
vn -0.8207 -0.5714 -0.0000
vn -0.8049 -0.5714 -0.1601
vn -0.7582 -0.5714 -0.3141
vn -0.6824 -0.5714 -0.4559
vn -0.5803 -0.5714 -0.5803
vn -0.4559 -0.5714 -0.6824
vn -0.3141 -0.5714 -0.7582
vn -0.1601 -0.5714 -0.8049
vn 0.1193 0.7912 -0.5998
vn -0.0000 0.7912 -0.6116
vn 0.2340 0.7912 -0.5650
vn 0.3398 0.7912 -0.5085
vn 0.4325 0.7912 -0.4325
vn 0.5085 0.7912 -0.3398
vn 0.5650 0.7912 -0.2340
vn 0.5998 0.7912 -0.1193
vn 0.6116 0.7912 -0.0000
vn 0.5998 0.7912 0.1193
vn 0.5650 0.7912 0.2340
vn 0.5085 0.7912 0.3398
vn 0.4325 0.7912 0.4325
vn 0.3398 0.7912 0.5085
vn 0.2340 0.7912 0.5650
vn 0.1193 0.7912 0.5998
vn -0.0000 0.7912 0.6116
vn -0.1193 0.7912 0.5998
vn -0.2340 0.7912 0.5650
vn -0.3398 0.7912 0.5085
vn -0.4325 0.7912 0.4325
vn -0.5085 0.7912 0.3398
vn -0.5650 0.7912 0.2340
vn -0.5998 0.7912 0.1193
vn -0.6116 0.7912 -0.0000
vn -0.5998 0.7912 -0.1193
vn -0.5650 0.7912 -0.2340
vn -0.5085 0.7912 -0.3398
vn -0.4325 0.7912 -0.4325
vn -0.3398 0.7912 -0.5085
vn -0.2340 0.7912 -0.5650
vn -0.1193 0.7912 -0.5998
vn -0.1255 0.7656 0.6310
vn -0.0000 0.7656 0.6434
vn -0.2462 0.7656 0.5944
vn -0.3574 0.7656 0.5349
vn -0.4549 0.7656 0.4549
vn -0.5349 0.7656 0.3574
vn -0.5944 0.7656 0.2462
vn -0.6310 0.7656 0.1255
vn -0.6434 0.7656 -0.0000
vn -0.6310 0.7656 -0.1255
vn -0.5944 0.7656 -0.2462
vn -0.5349 0.7656 -0.3574
vn -0.4549 0.7656 -0.4549
vn -0.3574 0.7656 -0.5349
vn -0.2462 0.7656 -0.5944
vn -0.1255 0.7656 -0.6310
vn -0.0000 0.7656 -0.6434
vn 0.1255 0.7656 -0.6310
vn 0.2462 0.7656 -0.5944
vn 0.3574 0.7656 -0.5349
vn 0.4549 0.7656 -0.4549
vn 0.5349 0.7656 -0.3574
vn 0.5944 0.7656 -0.2462
vn 0.6310 0.7656 -0.1255
vn 0.6434 0.7656 -0.0000
vn 0.6310 0.7656 0.1255
vn 0.5944 0.7656 0.2462
vn 0.5349 0.7656 0.3574
vn 0.4549 0.7656 0.4549
vn 0.3574 0.7656 0.5349
vn 0.2462 0.7656 0.5944
vn 0.1255 0.7656 0.6310
vn -0.1673 0.5145 0.8410
vn -0.0000 0.5145 0.8575
vn -0.3282 0.5145 0.7922
vn -0.4764 0.5145 0.7130
vn -0.6063 0.5145 0.6063
vn -0.7130 0.5145 0.4764
vn -0.7922 0.5145 0.3282
vn -0.8410 0.5145 0.1673
vn -0.8575 0.5145 -0.0000
vn -0.8410 0.5145 -0.1673
vn -0.7922 0.5145 -0.3282
vn -0.7130 0.5145 -0.4764
vn -0.6063 0.5145 -0.6063
vn -0.4764 0.5145 -0.7130
vn -0.3282 0.5145 -0.7922
vn -0.1673 0.5145 -0.8410
vn -0.0000 0.5145 -0.8575
vn 0.1673 0.5145 -0.8410
vn 0.3282 0.5145 -0.7922
vn 0.4764 0.5145 -0.7130
vn 0.6063 0.5145 -0.6063
vn 0.7130 0.5145 -0.4764
vn 0.7922 0.5145 -0.3282
vn 0.8410 0.5145 -0.1673
vn 0.8575 0.5145 -0.0000
vn 0.8410 0.5145 0.1673
vn 0.7922 0.5145 0.3282
vn 0.7130 0.5145 0.4764
vn 0.6063 0.5145 0.6063
vn 0.4764 0.5145 0.7130
vn 0.3282 0.5145 0.7922
vn 0.1673 0.5145 0.8410
vn -0.0634 0.9456 0.3190
vn -0.0000 0.9456 0.3252
vn -0.1244 0.9456 0.3004
vn -0.1807 0.9456 0.2704
vn -0.2300 0.9456 0.2300
vn -0.2704 0.9456 0.1807
vn -0.3004 0.9456 0.1244
vn -0.3190 0.9456 0.0634
vn -0.3252 0.9456 -0.0000
vn -0.3190 0.9456 -0.0634
vn -0.3004 0.9456 -0.1244
vn -0.2704 0.9456 -0.1807
vn -0.2300 0.9456 -0.2300
vn -0.1807 0.9456 -0.2704
vn -0.1244 0.9456 -0.3004
vn -0.0634 0.9456 -0.3190
vn -0.0000 0.9456 -0.3252
vn 0.0634 0.9456 -0.3190
vn 0.1244 0.9456 -0.3004
vn 0.1807 0.9456 -0.2704
vn 0.2300 0.9456 -0.2300
vn 0.2704 0.9456 -0.1807
vn 0.3004 0.9456 -0.1244
vn 0.3190 0.9456 -0.0634
vn 0.3252 0.9456 -0.0000
vn 0.3190 0.9456 0.0634
vn 0.3004 0.9456 0.1244
vn 0.2704 0.9456 0.1807
vn 0.2300 0.9456 0.2300
vn 0.1807 0.9456 0.2704
vn 0.1244 0.9456 0.3004
vn 0.0634 0.9456 0.3190
vn 0.1622 0.5558 -0.8154
vn 0.3181 0.5558 -0.7681
vn 0.4619 0.5558 -0.6912
vn 0.5878 0.5558 -0.5878
vn 0.6912 0.5558 -0.4619
vn 0.7681 0.5558 -0.3181
vn 0.8154 0.5558 -0.1622
vn 0.8313 0.5558 -0.0000
vn 0.8154 0.5558 0.1622
vn 0.7681 0.5558 0.3181
vn 0.6912 0.5558 0.4619
vn 0.5878 0.5558 0.5878
vn 0.4619 0.5558 0.6912
vn 0.3181 0.5558 0.7681
vn 0.1622 0.5558 0.8154
vn -0.0000 0.5558 0.8313
vn -0.1622 0.5558 0.8154
vn -0.3181 0.5558 0.7681
vn -0.4619 0.5558 0.6912
vn -0.5878 0.5558 0.5878
vn -0.6912 0.5558 0.4619
vn -0.7681 0.5558 0.3181
vn -0.8154 0.5558 0.1622
vn -0.8313 0.5558 -0.0000
vn -0.8154 0.5558 -0.1622
vn -0.7681 0.5558 -0.3181
vn -0.6912 0.5558 -0.4619
vn -0.5878 0.5558 -0.5878
vn -0.4619 0.5558 -0.6912
vn -0.3181 0.5558 -0.7681
vn -0.1622 0.5558 -0.8154
vn -0.0000 0.5558 -0.8313
vn -0.0000 -0.8409 -0.5411
vn 0.1056 -0.8409 -0.5307
vn 0.2071 -0.8409 -0.5000
vn 0.3006 -0.8409 -0.4499
vn 0.3826 -0.8409 -0.3826
vn 0.4499 -0.8409 -0.3006
vn 0.5000 -0.8409 -0.2071
vn 0.5307 -0.8409 -0.1056
vn 0.5411 -0.8409 -0.0000
vn 0.5307 -0.8409 0.1056
vn 0.5000 -0.8409 0.2071
vn 0.4499 -0.8409 0.3006
vn 0.3826 -0.8409 0.3826
vn 0.3006 -0.8409 0.4499
vn 0.2071 -0.8409 0.5000
vn 0.1056 -0.8409 0.5307
vn -0.0000 -0.8409 0.5411
vn -0.1056 -0.8409 0.5307
vn -0.2071 -0.8409 0.5000
vn -0.3006 -0.8409 0.4499
vn -0.3826 -0.8409 0.3826
vn -0.4499 -0.8409 0.3006
vn -0.5000 -0.8409 0.2071
vn -0.5307 -0.8409 0.1056
vn -0.5411 -0.8409 -0.0000
vn -0.5307 -0.8409 -0.1056
vn -0.5000 -0.8409 -0.2071
vn -0.4499 -0.8409 -0.3006
vn -0.3826 -0.8409 -0.3826
vn -0.3006 -0.8409 -0.4499
vn -0.2071 -0.8409 -0.5000
vn -0.1056 -0.8409 -0.5307
vn 0.1681 0.5072 -0.8452
vn 0.3298 0.5072 -0.7962
vn 0.4788 0.5072 -0.7166
vn 0.6094 0.5072 -0.6094
vn 0.7166 0.5072 -0.4788
vn 0.7962 0.5072 -0.3298
vn 0.8452 0.5072 -0.1681
vn 0.8618 0.5072 -0.0000
vn 0.8452 0.5072 0.1681
vn 0.7962 0.5072 0.3298
vn 0.7166 0.5072 0.4788
vn 0.6094 0.5072 0.6094
vn 0.4788 0.5072 0.7166
vn 0.3298 0.5072 0.7962
vn 0.1681 0.5072 0.8452
vn -0.0000 0.5072 0.8618
vn -0.1681 0.5072 0.8452
vn -0.3298 0.5072 0.7962
vn -0.4788 0.5072 0.7166
vn -0.6094 0.5072 0.6094
vn -0.7166 0.5072 0.4788
vn -0.7962 0.5072 0.3298
vn -0.8452 0.5072 0.1681
vn -0.8618 0.5072 -0.0000
vn -0.8452 0.5072 -0.1681
vn -0.7962 0.5072 -0.3298
vn -0.7166 0.5072 -0.4788
vn -0.6094 0.5072 -0.6094
vn -0.4788 0.5072 -0.7166
vn -0.3298 0.5072 -0.7962
vn -0.1681 0.5072 -0.8452
vn -0.0000 0.5072 -0.8618
vt 0.063818 0.041673
vt 0.041673 0.063818
vt 0.036874 0.059880
vt 0.059880 0.036874
vt 0.006178 0.180829
vt 0.012288 0.211546
vt 0.006347 0.213348
vt 0.000000 0.181438
vt 0.306067 0.240481
vt 0.318052 0.211546
vt 0.323992 0.213348
vt 0.311541 0.243407
vt 0.089859 0.024273
vt 0.086932 0.018798
vt 0.288667 0.266521
vt 0.293465 0.270459
vt 0.118793 0.012288
vt 0.116991 0.006347
vt 0.266521 0.288667
vt 0.270459 0.293465
vt 0.149510 0.006178
vt 0.148902 -0.000000
vt 0.240481 0.306067
vt 0.243407 0.311541
vt 0.180829 0.006178
vt 0.181437 -0.000000
vt 0.211546 0.318052
vt 0.213348 0.323992
vt 0.211546 0.012288
vt 0.213348 0.006347
vt 0.180829 0.324162
vt 0.181438 0.330339
vt 0.240481 0.024273
vt 0.243407 0.018798
vt 0.149510 0.324162
vt 0.148902 0.330339
vt 0.266521 0.041673
vt 0.270459 0.036874
vt 0.118793 0.318052
vt 0.116991 0.323992
vt 0.288667 0.063818
vt 0.293465 0.059880
vt 0.089859 0.306067
vt 0.086933 0.311541
vt 0.306067 0.089859
vt 0.311541 0.086932
vt 0.006178 0.149510
vt 0.000000 0.148902
vt 0.063818 0.288667
vt 0.059880 0.293465
vt 0.318052 0.118793
vt 0.323992 0.116991
vt 0.012288 0.118793
vt 0.006347 0.116991
vt 0.041673 0.266521
vt 0.036874 0.270459
vt 0.324162 0.149510
vt 0.330339 0.148902
vt 0.024273 0.089859
vt 0.018798 0.086933
vt 0.024273 0.240481
vt 0.018798 0.243407
vt 0.324162 0.180829
vt 0.330339 0.181437
vt 0.239850 0.830451
vt 0.188046 0.839594
vt 0.189548 0.806674
vt 0.241075 0.803587
vt 0.327197 0.330339
vt 0.237447 0.855757
vt 0.185102 0.870604
vt 0.233958 0.878532
vt 0.180826 0.898512
vt 0.229517 0.897900
vt 0.175385 0.922246
vt 0.720792 0.245221
vt 0.752135 0.242134
vt 0.752135 0.275698
vt 0.720792 0.272611
vt 0.974031 0.783325
vt 0.922413 0.759706
vt 0.918632 0.735652
vt 0.970945 0.763695
vt 0.975931 0.806286
vt 0.924742 0.787844
vt 0.976573 0.831698
vt 0.925528 0.818983
vt 0.975931 0.858583
vt 0.924742 0.851928
vt 0.974031 0.885907
vt 0.922413 0.885412
vt 0.970945 0.912622
vt 0.918632 0.918149
vt 0.825895 0.220995
vt 0.890942 0.240975
vt 0.882202 0.264709
vt 0.818763 0.240363
vt 0.831499 0.198220
vt 0.897809 0.213067
vt 0.835359 0.172914
vt 0.902539 0.182057
vt 0.837327 0.146050
vt 0.904950 0.149137
vt 0.837327 0.118659
vt 0.904950 0.115572
vt 0.835359 0.091795
vt 0.902539 0.082652
vt 0.831499 0.066489
vt 0.897809 0.051642
vt 0.825895 0.043714
vt 0.890942 0.023734
vt 0.818763 0.024346
vt 0.882202 0.000000
vt 0.908646 0.175672
vt 0.960812 0.182445
vt 0.965166 0.213288
vt 0.912199 0.200842
vt 0.906198 0.148891
vt 0.957813 0.149627
vt 0.904950 0.121529
vt 0.956283 0.116097
vt 0.904950 0.094636
vt 0.956283 0.083143
vt 0.906198 0.069247
vt 0.957813 0.052031
vt 0.908646 0.046337
vt 0.960812 0.023957
vt 0.912199 0.026787
vt 0.965166 0.000000
vt 0.233958 0.701251
vt 0.180826 0.681271
vt 0.175385 0.657537
vt 0.229517 0.681883
vt 0.237447 0.724026
vt 0.185102 0.709179
vt 0.239850 0.749332
vt 0.188046 0.740189
vt 0.241075 0.776196
vt 0.189548 0.773109
vt 0.798482 0.405976
vt 0.821398 0.408955
vt 0.820600 0.443632
vt 0.797631 0.442970
vt 0.801001 0.371089
vt 0.823760 0.376253
vt 0.805093 0.339651
vt 0.827596 0.346784
vt 0.810600 0.312869
vt 0.832758 0.321680
vt 0.817311 0.291772
vt 0.839047 0.301905
vt 0.687241 0.890804
vt 0.709577 0.883164
vt 0.715304 0.908145
vt 0.693351 0.917455
vt 0.682441 0.859466
vt 0.705077 0.853789
vt 0.679134 0.824645
vt 0.701977 0.821149
vt 0.677448 0.787679
vt 0.700397 0.786499
vt 0.677448 0.749989
vt 0.700397 0.751169
vt 0.679134 0.713023
vt 0.701977 0.716519
vt 0.682441 0.678202
vt 0.705077 0.683879
vt 0.687241 0.646864
vt 0.709577 0.654504
vt 0.693351 0.620213
vt 0.715304 0.629523
vt 0.719953 0.473785
vt 0.734835 0.472605
vt 0.732297 0.507255
vt 0.717246 0.510751
vt 0.719953 0.436096
vt 0.734835 0.437276
vt 0.717246 0.399130
vt 0.732297 0.402626
vt 0.763282 0.633997
vt 0.741125 0.642808
vt 0.734835 0.623033
vt 0.756572 0.612900
vt 0.768789 0.660779
vt 0.746287 0.667912
vt 0.772881 0.692217
vt 0.750123 0.697381
vt 0.775401 0.727104
vt 0.752485 0.730083
vt 0.776252 0.764098
vt 0.753282 0.764760
vt 0.775401 0.801778
vt 0.752485 0.800080
vt 0.772881 0.838697
vt 0.750123 0.834686
vt 0.768789 0.873434
vt 0.746287 0.867248
vt 0.763282 0.904656
vt 0.741125 0.896514
vt 0.756572 0.931162
vt 0.734835 0.921360
vt 0.810600 0.583528
vt 0.832758 0.575386
vt 0.839047 0.600232
vt 0.817311 0.610034
vt 0.805093 0.552306
vt 0.827596 0.546120
vt 0.801001 0.517569
vt 0.823760 0.513558
vt 0.798482 0.480650
vt 0.821398 0.478952
vt 0.734835 0.446451
vt 0.751304 0.444493
vt 0.752134 0.481220
vt 0.735593 0.480007
vt 0.773216 0.443227
vt 0.774080 0.481496
vt 0.754590 0.517205
vt 0.737837 0.512885
vt 0.776639 0.518991
vt 0.966835 0.488907
vt 0.953381 0.497896
vt 0.936063 0.465497
vt 0.951013 0.459305
vt 0.780795 0.554271
vt 0.758578 0.551064
vt 0.925399 0.430342
vt 0.941270 0.427185
vt 0.786388 0.585980
vt 0.763946 0.581497
vt 0.921798 0.393782
vt 0.937980 0.393782
vt 0.793203 0.612900
vt 0.770487 0.607333
vt 0.925399 0.357222
vt 0.941270 0.360379
vt 0.803396 0.928461
vt 0.780679 0.934028
vt 0.787494 0.907108
vt 0.809937 0.902625
vt 0.936063 0.322067
vt 0.951013 0.328259
vt 0.793087 0.875399
vt 0.815304 0.872192
vt 0.953381 0.289668
vt 0.966835 0.298657
vt 0.797243 0.840119
vt 0.819293 0.838333
vt 0.836046 0.834013
vt 0.821749 0.802348
vt 0.838290 0.801135
vt 0.799802 0.802624
vt 0.822578 0.765621
vt 0.839047 0.767579
vt 0.800667 0.764355
vt 0.821749 0.729562
vt 0.838290 0.734634
vt 0.799802 0.726783
vt 0.614590 0.303938
vt 0.636694 0.289668
vt 0.647943 0.310078
vt 0.624867 0.322586
vt 0.797243 0.691351
vt 0.819293 0.695557
vt 0.657509 0.336055
vt 0.633607 0.346320
vt 0.672445 0.303999
vt 0.682413 0.331066
vt 0.793087 0.659422
vt 0.665025 0.366600
vt 0.640474 0.374228
vt 0.690244 0.362893
vt 0.704223 0.332971
vt 0.711934 0.364309
vt 0.670202 0.400541
vt 0.645204 0.405238
vt 0.695639 0.398258
vt 0.672841 0.436572
vt 0.647616 0.438158
vt 0.698389 0.435801
vt 0.672841 0.473309
vt 0.647616 0.471723
vt 0.698389 0.474080
vt 0.670202 0.509340
vt 0.645204 0.504643
vt 0.695639 0.511623
vt 0.665025 0.543281
vt 0.640474 0.535653
vt 0.690244 0.546988
vt 0.711934 0.545572
vt 0.657509 0.573826
vt 0.633607 0.563561
vt 0.682413 0.578815
vt 0.662980 0.644959
vt 0.658104 0.676787
vt 0.647943 0.599803
vt 0.624867 0.587295
vt 0.635965 0.680494
vt 0.654746 0.712152
vt 0.632742 0.714434
vt 0.636694 0.620213
vt 0.614590 0.605943
vt 0.653034 0.749695
vt 0.631099 0.750465
vt 0.614590 0.752052
vt 0.631099 0.787202
vt 0.614590 0.785616
vt 0.653034 0.787973
vt 0.632742 0.823234
vt 0.616091 0.818536
vt 0.654746 0.825516
vt 0.241075 0.667802
vt 0.253583 0.657537
vt 0.273993 0.688083
vt 0.259722 0.695710
vt 0.658104 0.860881
vt 0.635965 0.857174
vt 0.288052 0.722023
vt 0.272567 0.726720
vt 0.662980 0.892709
vt 0.640645 0.887720
vt 0.295219 0.758054
vt 0.279115 0.759640
vt 0.669186 0.919776
vt 0.646600 0.913697
vt 0.295219 0.794791
vt 0.279115 0.793205
vt 0.770487 0.297118
vt 0.793203 0.289668
vt 0.786388 0.311093
vt 0.763946 0.317681
vt 0.288052 0.830822
vt 0.272567 0.826125
vt 0.780795 0.338294
vt 0.758578 0.343786
vt 0.273993 0.864763
vt 0.259722 0.857135
vt 0.776639 0.370223
vt 0.754590 0.374429
vt 0.253583 0.895309
vt 0.241075 0.885043
vt 0.774080 0.405655
vt 0.752134 0.408434
vt 0.735593 0.413506
vt 0.839845 0.396718
vt 0.906152 0.401161
vt 0.905445 0.431901
vt 0.839047 0.431395
vt 0.842207 0.364016
vt 0.908246 0.372171
vt 0.846043 0.334547
vt 0.911646 0.346047
vt 0.851205 0.309442
vt 0.916222 0.323793
vt 0.857495 0.289668
vt 0.921798 0.306262
vt 0.909452 0.612976
vt 0.844125 0.625954
vt 0.839048 0.603808
vt 0.903725 0.587994
vt 0.913952 0.642351
vt 0.848114 0.651995
vt 0.917052 0.674991
vt 0.850862 0.680929
vt 0.918632 0.709641
vt 0.852262 0.711646
vt 0.918632 0.744970
vt 0.852262 0.742965
vt 0.917052 0.779620
vt 0.850862 0.773682
vt 0.913952 0.812260
vt 0.848114 0.802616
vt 0.909452 0.841635
vt 0.844125 0.828657
vt 0.903725 0.866617
vt 0.839048 0.850803
vt 0.382952 0.889701
vt 0.331475 0.889841
vt 0.334837 0.859226
vt 0.386744 0.855166
vt 0.381671 0.925007
vt 0.330339 0.921139
vt 0.382952 0.959727
vt 0.331475 0.951917
vt 0.386744 0.992526
vt 0.334836 0.980993
vt 0.070405 0.682518
vt 0.005077 0.695497
vt 0.000000 0.673351
vt 0.064677 0.657537
vt 0.074905 0.711893
vt 0.009066 0.721537
vt 0.078004 0.744533
vt 0.011814 0.750472
vt 0.079584 0.779184
vt 0.013215 0.781189
vt 0.079584 0.814513
vt 0.013215 0.812508
vt 0.078004 0.849163
vt 0.011814 0.843224
vt 0.074905 0.881803
vt 0.009066 0.872159
vt 0.070405 0.911178
vt 0.005077 0.898200
vt 0.064677 0.936160
vt -0.000000 0.920345
vt 0.851205 0.563148
vt 0.916222 0.548698
vt 0.921798 0.570724
vt 0.857495 0.587994
vt 0.846043 0.533882
vt 0.911646 0.522755
vt 0.842207 0.501321
vt 0.908246 0.493889
vt 0.839845 0.466715
vt 0.906152 0.463212
vt 0.965166 0.130520
vt 0.970290 0.130560
vt 0.971017 0.162777
vt 0.965901 0.163048
vt 0.973172 0.194344
vt 0.968076 0.194917
vt 0.976671 0.224045
vt 0.971609 0.224904
vt 0.981379 0.250741
vt 0.976362 0.251856
vt 0.987117 0.273405
vt 0.982155 0.274737
vt 0.720295 0.876805
vt 0.715304 0.875584
vt 0.720528 0.852797
vt 0.725569 0.853799
vt 0.724633 0.826002
vt 0.729713 0.826746
vt 0.727461 0.796229
vt 0.732568 0.796687
vt 0.728902 0.764622
vt 0.734023 0.764777
vt 0.728902 0.732396
vt 0.734023 0.732241
vt 0.727461 0.700789
vt 0.732568 0.700331
vt 0.724633 0.671016
vt 0.729713 0.670272
vt 0.720528 0.644221
vt 0.725569 0.643219
vt 0.715304 0.621434
vt 0.720295 0.620213
vt 0.395377 0.981664
vt 0.391371 0.980774
vt 0.387912 0.950856
vt 0.391884 0.951459
vt 0.386744 0.919186
vt 0.390705 0.919485
vt 0.387912 0.886981
vt 0.391884 0.886970
vt 0.391371 0.855479
vt 0.395377 0.855166
vt 0.971826 0.546259
vt 0.966835 0.545039
vt 0.972060 0.522251
vt 0.977101 0.523253
vt 0.976164 0.495456
vt 0.981245 0.496200
vt 0.978992 0.465683
vt 0.984099 0.466142
vt 0.980433 0.434076
vt 0.985554 0.434231
vt 0.980433 0.401850
vt 0.985554 0.401695
vt 0.978992 0.370243
vt 0.984099 0.369785
vt 0.976164 0.340470
vt 0.981245 0.339726
vt 0.972060 0.313675
vt 0.977101 0.312674
vt 0.966835 0.290888
vt 0.971826 0.289668
vt 0.982155 0.000000
vt 0.987117 0.001281
vt 0.981379 0.019319
vt 0.976362 0.018211
vt 0.976671 0.042218
vt 0.971609 0.041331
vt 0.973172 0.069099
vt 0.968076 0.068470
vt 0.971017 0.098928
vt 0.965901 0.098585
vt 0.007736 0.509289
vt 0.013725 0.539402
vt 0.006287 0.541658
vt 0.000000 0.510051
vt 0.025475 0.567767
vt 0.018619 0.571431
vt 0.042532 0.593295
vt 0.036523 0.598226
vt 0.064242 0.615005
vt 0.059311 0.621013
vt 0.089770 0.632062
vt 0.086106 0.638917
vt 0.118135 0.643811
vt 0.115879 0.651250
vt 0.148248 0.649801
vt 0.147486 0.657537
vt 0.178950 0.649801
vt 0.179712 0.657537
vt 0.209062 0.643811
vt 0.211319 0.651250
vt 0.237428 0.632062
vt 0.241092 0.638917
vt 0.262956 0.615005
vt 0.267887 0.621013
vt 0.284665 0.593295
vt 0.290674 0.598226
vt 0.301723 0.567767
vt 0.308578 0.571431
vt 0.313472 0.539402
vt 0.320910 0.541658
vt 0.319462 0.509289
vt 0.327197 0.510051
vt 0.319462 0.478587
vt 0.327197 0.477825
vt 0.313472 0.448474
vt 0.320910 0.446218
vt 0.301723 0.420109
vt 0.308578 0.416445
vt 0.284665 0.394581
vt 0.290674 0.389650
vt 0.262956 0.372871
vt 0.267887 0.366863
vt 0.237428 0.355814
vt 0.241092 0.348959
vt 0.209062 0.344065
vt 0.211319 0.336626
vt 0.178950 0.338075
vt 0.179712 0.330339
vt 0.148247 0.338075
vt 0.147486 0.330339
vt 0.118135 0.344065
vt 0.115879 0.336626
vt 0.089770 0.355814
vt 0.086106 0.348959
vt 0.064242 0.372871
vt 0.059311 0.366863
vt 0.042532 0.394581
vt 0.036523 0.389650
vt 0.025475 0.420109
vt 0.018619 0.416445
vt 0.013725 0.448474
vt 0.006287 0.446218
vt 0.007736 0.478587
vt 0.000000 0.477825
vt 0.710227 0.021592
vt 0.714713 0.047025
vt 0.629082 0.055468
vt 0.624991 0.032276
vt 0.486463 0.289668
vt 0.513921 0.295129
vt 0.500285 0.340082
vt 0.481858 0.336417
vt 0.079584 0.772036
vt 0.080277 0.741341
vt 0.166383 0.744639
vt 0.165751 0.772628
vt 0.704761 -0.000000
vt 0.620007 0.012587
vt 0.080277 0.802171
vt 0.166383 0.800107
vt 0.728769 0.021710
vt 0.733747 0.000000
vt 0.818763 0.010671
vt 0.814224 0.030467
vt 0.082330 0.830590
vt 0.168255 0.826021
vt 0.724859 0.047238
vt 0.810658 0.053745
vt 0.085663 0.856200
vt 0.171294 0.849374
vt 0.722165 0.075603
vt 0.808202 0.079610
vt 0.090149 0.878017
vt 0.175385 0.869268
vt 0.720792 0.105716
vt 0.806950 0.107069
vt 0.710227 0.242072
vt 0.704761 0.259257
vt 0.620007 0.248993
vt 0.624991 0.233323
vt 0.720792 0.136418
vt 0.806950 0.135065
vt 0.714713 0.220255
vt 0.629082 0.213429
vt 0.722165 0.166530
vt 0.808202 0.162523
vt 0.718046 0.194645
vt 0.632121 0.190077
vt 0.925164 0.677174
vt 0.925164 0.646472
vt 0.999392 0.647825
vt 0.999392 0.675821
vt 0.724859 0.194896
vt 0.810658 0.188388
vt 0.720099 0.166226
vt 0.633993 0.164163
vt 0.922958 0.707287
vt 0.997381 0.703279
vt 0.728769 0.220424
vt 0.814224 0.211666
vt 0.720792 0.136091
vt 0.634625 0.136683
vt 0.918632 0.735652
vt 0.993436 0.729145
vt 0.733747 0.242134
vt 0.818763 0.231463
vt 0.720099 0.105396
vt 0.633993 0.108694
vt 0.085663 0.682970
vt 0.090149 0.657537
vt 0.175385 0.668221
vt 0.171294 0.691413
vt 0.922959 0.616359
vt 0.918632 0.587994
vt 0.993436 0.594501
vt 0.997381 0.620367
vt 0.718046 0.075322
vt 0.632121 0.081271
vt 0.082330 0.711267
vt 0.168255 0.717216
vt 0.380754 0.459613
vt 0.377088 0.441187
vt 0.377088 0.422399
vt 0.380754 0.403973
vt 0.387943 0.386615
vt 0.398381 0.370994
vt 0.411666 0.357709
vt 0.427287 0.347272
vt 0.444644 0.340082
vt 0.463071 0.336417
vt 0.517642 0.347272
vt 0.533264 0.357709
vt 0.546548 0.370994
vt 0.556986 0.386615
vt 0.564176 0.403973
vt 0.567841 0.422399
vt 0.567841 0.441187
vt 0.564176 0.459613
vt 0.556986 0.476971
vt 0.546548 0.492592
vt 0.533264 0.505877
vt 0.517642 0.516314
vt 0.500285 0.523504
vt 0.481859 0.527169
vt 0.463071 0.527169
vt 0.444645 0.523504
vt 0.427287 0.516314
vt 0.411666 0.505877
vt 0.398381 0.492592
vt 0.387943 0.476971
vt 0.539786 0.557743
vt 0.513921 0.568456
vt 0.458467 0.289668
vt 0.563064 0.542189
vt 0.431008 0.295129
vt 0.582861 0.522393
vt 0.405143 0.305843
vt 0.598415 0.499114
vt 0.381865 0.321397
vt 0.609128 0.473249
vt 0.335801 0.473249
vt 0.330339 0.445791
vt 0.362069 0.341193
vt 0.614590 0.445791
vt 0.346515 0.499115
vt 0.346515 0.364471
vt 0.614590 0.417795
vt 0.362069 0.522393
vt 0.335801 0.390337
vt 0.609128 0.390336
vt 0.381865 0.542189
vt 0.330339 0.417795
vt 0.598415 0.364471
vt 0.405143 0.557743
vt 0.582861 0.341193
vt 0.431008 0.568457
vt 0.563064 0.321397
vt 0.458467 0.573918
vt 0.539786 0.305843
vt 0.486463 0.573918
vt 0.598399 0.210699
vt 0.608881 0.185394
vt 0.614441 0.187080
vt 0.603523 0.213438
vt 0.409308 0.021608
vt 0.386533 0.036825
vt 0.382847 0.032334
vt 0.406569 0.016484
vt 0.583182 0.233474
vt 0.587673 0.237160
vt 0.434613 0.011126
vt 0.432927 0.005566
vt 0.563813 0.252842
vt 0.567499 0.257334
vt 0.461478 0.005782
vt 0.460908 -0.000000
vt 0.541039 0.268060
vt 0.543778 0.273184
vt 0.488869 0.005782
vt 0.489438 -0.000000
vt 0.515733 0.278542
vt 0.517420 0.284102
vt 0.515733 0.011126
vt 0.517420 0.005566
vt 0.488868 0.283885
vt 0.489438 0.289668
vt 0.541039 0.021608
vt 0.543778 0.016484
vt 0.351947 0.210699
vt 0.367165 0.233474
vt 0.362673 0.237160
vt 0.346823 0.213438
vt 0.461478 0.283885
vt 0.460908 0.289668
vt 0.563814 0.036825
vt 0.567499 0.032334
vt 0.341465 0.185394
vt 0.335905 0.187080
vt 0.434613 0.278542
vt 0.432927 0.284102
vt 0.583182 0.056194
vt 0.587673 0.052508
vt 0.336122 0.158529
vt 0.330339 0.159099
vt 0.409307 0.268060
vt 0.406569 0.273184
vt 0.598399 0.078968
vt 0.603523 0.076229
vt 0.336122 0.131138
vt 0.330339 0.130569
vt 0.386533 0.252842
vt 0.382847 0.257333
vt 0.608881 0.104274
vt 0.614441 0.102587
vt 0.341465 0.104274
vt 0.335905 0.102587
vt 0.614225 0.131138
vt 0.620007 0.130569
vt 0.351947 0.078968
vt 0.346823 0.076229
vt 0.614225 0.158529
vt 0.620007 0.159099
vt 0.367165 0.056193
vt 0.362673 0.052508
vt 0.429945 0.849761
vt 0.404353 0.839161
vt 0.381321 0.823771
vt 0.361734 0.804184
vt 0.346344 0.781152
vt 0.335744 0.755560
vt 0.330339 0.728392
vt 0.330339 0.700692
vt 0.335744 0.673523
vt 0.346344 0.647932
vt 0.361734 0.624900
vt 0.381321 0.605312
vt 0.404353 0.589923
vt 0.429945 0.579322
vt 0.457113 0.573918
vt 0.484813 0.573918
vt 0.511982 0.579322
vt 0.537574 0.589923
vt 0.560606 0.605312
vt 0.580193 0.624900
vt 0.595582 0.647932
vt 0.606183 0.673524
vt 0.611587 0.700692
vt 0.611587 0.728392
vt 0.606183 0.755560
vt 0.595582 0.781152
vt 0.580193 0.804184
vt 0.560606 0.823772
vt 0.537573 0.839161
vt 0.511982 0.849762
vt 0.484813 0.855166
vt 0.457113 0.855166
vt 0.995532 0.862002
vt 0.988611 0.862417
vt 0.988611 0.833887
vt 0.995532 0.834301
vt 0.987335 0.805905
vt 0.994293 0.807133
vt 0.984832 0.779547
vt 0.991863 0.781541
vt 0.981198 0.755825
vt 0.988334 0.758509
vt 0.976573 0.735652
vt 0.983844 0.738922
vt 0.992885 0.293266
vt 1.000000 0.289668
vt 0.996299 0.310031
vt 0.989292 0.313037
vt 0.993749 0.333894
vt 0.986816 0.336206
vt 0.992450 0.360338
vt 0.985554 0.361882
vt 0.992450 0.388349
vt 0.985554 0.389078
vt 0.993749 0.416849
vt 0.986816 0.416750
vt 0.996299 0.444743
vt 0.989292 0.443834
vt 1.000000 0.470960
vt 0.992885 0.469288
vt 0.295219 0.660807
vt 0.303740 0.657537
vt 0.311169 0.677710
vt 0.302432 0.680394
vt 0.317006 0.701432
vt 0.308099 0.703426
vt 0.321026 0.727790
vt 0.312003 0.729018
vt 0.323076 0.755772
vt 0.313993 0.756186
vt 0.323076 0.784301
vt 0.313993 0.783887
vt 0.321026 0.812283
vt 0.312003 0.811055
vt 0.317006 0.838641
vt 0.308099 0.836647
vt 0.311169 0.862363
vt 0.302432 0.859679
vt 0.303740 0.882536
vt 0.295219 0.879266
vt 0.994144 0.154378
vt 0.987117 0.155120
vt 0.990331 0.127294
vt 0.997264 0.127361
vt 0.992311 0.098833
vt 0.999186 0.099727
vt 0.992979 0.070831
vt 0.999835 0.072539
vt 0.992311 0.044362
vt 0.999186 0.046840
vt 0.990331 0.020446
vt 0.997264 0.023618
vt 0.987117 0.000000
vt 0.994144 0.003767
vt 0.563289 0.827042
vt 0.539568 0.842892
vt 0.983844 0.957381
vt 0.976573 0.960651
vt 0.981198 0.940478
vt 0.988334 0.937794
vt 0.984832 0.916756
vt 0.991863 0.914762
vt 0.987335 0.890398
vt 0.994293 0.889170
s 1
f 230/1/230 229/2/229 293/3/262 294/4/263
f 225/5/225 256/6/256 320/7/289 289/8/258
f 244/9/244 243/10/243 307/11/276 308/12/277
f 231/13/231 230/1/230 294/4/263 295/14/264
f 245/15/245 244/9/244 308/12/277 309/16/278
f 232/17/232 231/13/231 295/14/264 296/18/265
f 246/19/246 245/15/245 309/16/278 310/20/279
f 233/21/233 232/17/232 296/18/265 297/22/266
f 247/23/247 246/19/246 310/20/279 311/24/280
f 234/25/234 233/21/233 297/22/266 298/26/267
f 248/27/248 247/23/247 311/24/280 312/28/281
f 235/29/235 234/25/234 298/26/267 299/30/268
f 249/31/249 248/27/248 312/28/281 313/32/282
f 236/33/236 235/29/235 299/30/268 300/34/269
f 250/35/250 249/31/249 313/32/282 314/36/283
f 237/37/237 236/33/236 300/34/269 301/38/270
f 251/39/251 250/35/250 314/36/283 315/40/284
f 238/41/238 237/37/237 301/38/270 302/42/271
f 252/43/252 251/39/251 315/40/284 316/44/285
f 239/45/239 238/41/238 302/42/271 303/46/272
f 226/47/226 225/5/225 289/8/258 290/48/259
f 253/49/253 252/43/252 316/44/285 317/50/286
f 240/51/240 239/45/239 303/46/272 304/52/273
f 227/53/227 226/47/226 290/48/259 291/54/260
f 254/55/254 253/49/253 317/50/286 318/56/287
f 241/57/241 240/51/240 304/52/273 305/58/274
f 228/59/228 227/53/227 291/54/260 292/60/261
f 255/61/255 254/55/254 318/56/287 319/62/288
f 242/63/242 241/57/241 305/58/274 306/64/275
f 229/2/229 228/59/228 292/60/261 293/3/262
f 256/6/256 255/61/255 319/62/288 320/7/289
f 243/10/243 242/63/242 306/64/275 307/11/276
f 479/65/448 64/66/64 1/67/1 480/68/449
f 20/69/20 18/69/18 82/69/82 84/69/84
f 478/70/447 62/71/62 64/66/64 479/65/448
f 45/69/45 47/69/47 111/69/111 109/69/109
f 477/72/446 60/73/60 62/71/62 478/70/447
f 19/69/19 21/69/21 85/69/85 83/69/83
f 476/74/445 58/75/58 60/73/60 477/72/446
f 48/69/48 46/69/46 110/69/110 112/69/112
f 475/76/444 56/77/56 58/78/58 476/79/445
f 22/69/22 20/69/20 84/69/84 86/69/86
f 474/80/443 54/81/54 56/82/56 475/83/444
f 47/69/47 49/69/49 113/69/113 111/69/111
f 473/84/442 52/85/52 54/81/54 474/80/443
f 21/69/21 23/69/23 87/69/87 85/69/85
f 472/86/441 50/87/50 52/85/52 473/84/442
f 50/69/50 48/69/48 112/69/112 114/69/114
f 471/88/440 48/89/48 50/87/50 472/86/441
f 24/69/24 22/69/22 86/69/86 88/69/88
f 470/90/439 46/91/46 48/89/48 471/88/440
f 49/69/49 51/69/51 115/69/115 113/69/113
f 469/92/438 44/93/44 46/91/46 470/90/439
f 23/69/23 25/69/25 89/69/89 87/69/87
f 468/94/437 42/95/42 44/96/44 469/97/438
f 52/69/52 50/69/50 114/69/114 116/69/116
f 467/98/436 40/99/40 42/95/42 468/94/437
f 26/69/26 24/69/24 88/69/88 90/69/90
f 466/100/435 38/101/38 40/99/40 467/98/436
f 51/69/51 53/69/53 117/69/117 115/69/115
f 465/102/434 36/103/36 38/101/38 466/100/435
f 25/69/25 27/69/27 91/69/91 89/69/89
f 464/104/433 34/105/34 36/103/36 465/102/434
f 54/69/54 52/69/52 116/69/116 118/69/118
f 463/106/432 32/107/32 34/105/34 464/104/433
f 28/69/28 26/69/26 90/69/90 92/69/92
f 462/108/431 30/109/30 32/107/32 463/106/432
f 53/69/53 55/69/55 119/69/119 117/69/117
f 461/110/430 28/111/28 30/109/30 462/108/431
f 27/69/27 29/69/29 93/69/93 91/69/91
f 460/112/429 26/113/26 28/111/28 461/110/430
f 2/69/2 3/69/3 67/69/67 66/69/66
f 459/114/428 24/115/24 26/116/26 460/117/429
f 56/69/56 54/69/54 118/69/118 120/69/120
f 458/118/427 22/119/22 24/115/24 459/114/428
f 30/69/30 28/69/28 92/69/92 94/69/94
f 457/120/426 20/121/20 22/119/22 458/118/427
f 4/69/4 1/69/1 65/69/65 68/69/68
f 456/122/425 18/123/18 20/121/20 457/120/426
f 55/69/55 57/69/57 121/69/121 119/69/119
f 455/124/424 16/125/16 18/123/18 456/122/425
f 29/69/29 31/69/31 95/69/95 93/69/93
f 454/126/423 14/127/14 16/125/16 455/124/424
f 3/69/3 5/69/5 69/69/69 67/69/67
f 453/128/422 12/129/12 14/127/14 454/126/423
f 58/69/58 56/69/56 120/69/120 122/69/122
f 452/130/421 10/131/10 12/132/12 453/133/422
f 32/69/32 30/69/30 94/69/94 96/69/96
f 451/134/420 8/135/8 10/131/10 452/130/421
f 6/69/6 4/69/4 68/69/68 70/69/70
f 450/136/419 6/137/6 8/135/8 451/134/420
f 57/69/57 59/69/59 123/69/123 121/69/121
f 449/138/418 4/139/4 6/137/6 450/136/419
f 31/69/31 33/69/33 97/69/97 95/69/95
f 480/68/449 1/67/1 4/139/4 449/138/418
f 5/69/5 7/69/7 71/69/71 69/69/69
f 222/140/222 127/141/127 66/142/66 131/143/131
f 219/144/219 125/145/125 127/141/127 222/140/222
f 216/146/216 123/147/123 125/145/125 219/144/219
f 213/148/213 121/149/121 123/147/123 216/146/216
f 210/150/210 119/151/119 121/149/121 213/148/213
f 207/152/207 117/153/117 119/154/119 210/155/210
f 204/156/204 115/157/115 117/153/117 207/152/207
f 201/158/201 113/159/113 115/157/115 204/156/204
f 198/160/198 111/161/111 113/159/113 201/158/201
f 195/162/195 109/163/109 111/161/111 198/160/198
f 192/164/192 107/165/107 109/163/109 195/162/195
f 189/166/189 105/167/105 107/165/107 192/164/192
f 186/168/186 103/169/103 105/167/105 189/166/189
f 183/170/183 101/171/101 103/169/103 186/168/186
f 180/172/180 99/173/99 101/174/101 183/175/183
f 177/176/177 97/177/97 99/173/99 180/172/180
f 174/178/174 95/179/95 97/177/97 177/176/177
f 171/180/171 93/181/93 95/182/95 174/183/174
f 168/184/168 91/185/91 93/181/93 171/180/171
f 165/186/165 89/187/89 91/185/91 168/184/168
f 162/188/162 87/189/87 89/187/89 165/186/165
f 159/190/159 85/191/85 87/189/87 162/188/162
f 156/192/156 83/193/83 85/191/85 159/190/159
f 153/194/153 81/195/81 83/193/83 156/192/156
f 150/196/150 79/197/79 81/195/81 153/194/153
f 147/198/147 77/199/77 79/197/79 150/196/150
f 144/200/144 75/201/75 77/199/77 147/198/147
f 141/202/141 73/203/73 75/204/75 144/205/144
f 138/206/138 71/207/71 73/203/73 141/202/141
f 135/208/135 69/209/69 71/207/71 138/206/138
f 132/210/132 67/211/67 69/209/69 135/208/135
f 131/143/131 66/142/66 67/211/67 132/210/132
f 46/69/46 44/69/44 108/69/108 110/69/110
f 17/69/17 19/69/19 83/69/83 81/69/81
f 43/69/43 45/69/45 109/69/109 107/69/107
f 18/69/18 16/69/16 80/69/80 82/69/82
f 44/69/44 42/69/42 106/69/106 108/69/108
f 15/69/15 17/69/17 81/69/81 79/69/79
f 41/69/41 43/69/43 107/69/107 105/69/105
f 16/69/16 14/69/14 78/69/78 80/69/80
f 42/69/42 40/69/40 104/69/104 106/69/106
f 13/69/13 15/69/15 79/69/79 77/69/77
f 39/69/39 41/69/41 105/69/105 103/69/103
f 14/69/14 12/69/12 76/69/76 78/69/78
f 40/69/40 38/69/38 102/69/102 104/69/104
f 1/69/1 64/69/64 128/69/128 65/69/65
f 11/69/11 13/69/13 77/69/77 75/69/75
f 37/69/37 39/69/39 103/69/103 101/69/101
f 63/69/63 2/69/2 66/69/66 127/69/127
f 12/69/12 10/69/10 74/69/74 76/69/76
f 38/69/38 36/69/36 100/69/100 102/69/102
f 64/69/64 62/69/62 126/69/126 128/69/128
f 9/69/9 11/69/11 75/69/75 73/69/73
f 35/69/35 37/69/37 101/69/101 99/69/99
f 61/69/61 63/69/63 127/69/127 125/69/125
f 10/69/10 8/69/8 72/69/72 74/69/74
f 36/69/36 34/69/34 98/69/98 100/69/100
f 62/69/62 60/69/60 124/69/124 126/69/126
f 7/69/7 9/69/9 73/69/73 71/69/71
f 33/69/33 35/69/35 99/69/99 97/69/97
f 59/69/59 61/69/61 125/69/125 123/69/123
f 8/69/8 6/69/6 70/69/70 72/69/72
f 34/69/34 32/69/32 96/69/96 98/69/98
f 60/69/60 58/69/58 122/69/122 124/69/124
f 65/212/65 129/213/129 134/214/134 68/215/68
f 129/213/129 130/216/130 133/217/133 134/214/134
f 130/216/130 131/143/131 132/210/132 133/217/133
f 68/215/68 134/214/134 137/218/137 70/219/70
f 134/214/134 133/217/133 136/220/136 137/218/137
f 133/217/133 132/210/132 135/208/135 136/220/136
f 70/221/70 137/222/137 140/223/140 72/224/72
f 137/218/137 136/220/136 139/225/139 140/226/140
f 136/220/136 135/208/135 138/206/138 139/225/139
f 72/224/72 140/223/140 143/227/143 74/228/74
f 140/226/140 139/225/139 142/229/142 143/230/143
f 139/225/139 138/206/138 141/202/141 142/229/142
f 74/228/74 143/227/143 146/231/146 76/232/76
f 143/230/143 142/229/142 145/233/145 146/234/146
f 142/229/142 141/202/141 144/205/144 145/233/145
f 76/232/76 146/231/146 149/235/149 78/236/78
f 146/237/146 145/238/145 148/239/148 149/240/149
f 145/238/145 144/200/144 147/198/147 148/239/148
f 78/236/78 149/235/149 152/241/152 80/242/80
f 149/240/149 148/239/148 151/243/151 152/244/152
f 148/239/148 147/198/147 150/196/150 151/243/151
f 80/242/80 152/241/152 155/245/155 82/246/82
f 152/244/152 151/243/151 154/247/154 155/248/155
f 151/243/151 150/196/150 153/194/153 154/247/154
f 82/249/82 155/248/155 158/250/158 84/251/84
f 155/248/155 154/247/154 157/252/157 158/250/158
f 154/247/154 153/194/153 156/192/156 157/252/157
f 84/251/84 158/250/158 161/253/161 86/254/86
f 158/250/158 157/252/157 160/255/160 161/253/161
f 157/252/157 156/192/156 159/190/159 160/255/160
f 86/254/86 161/253/161 164/256/164 88/257/88
f 161/253/161 160/255/160 163/258/163 164/256/164
f 160/255/160 159/190/159 162/188/162 163/258/163
f 88/259/88 164/260/164 167/261/167 90/262/90
f 164/256/164 163/258/163 166/263/166 167/264/167
f 163/258/163 162/188/162 165/186/165 166/263/166
f 90/262/90 167/261/167 170/265/170 92/266/92
f 167/261/167 166/267/166 169/268/169 170/265/170
f 166/263/166 165/186/165 168/184/168 169/269/169
f 92/266/92 170/265/170 173/270/173 94/271/94
f 170/265/170 169/268/169 172/272/172 173/270/173
f 169/268/169 168/273/168 171/274/171 172/272/172
f 94/271/94 173/270/173 176/275/176 96/276/96
f 173/270/173 172/272/172 175/277/175 176/275/176
f 172/272/172 171/274/171 174/178/174 175/277/175
f 96/276/96 176/275/176 179/278/179 98/279/98
f 176/275/176 175/277/175 178/280/178 179/278/179
f 175/277/175 174/178/174 177/176/177 178/280/178
f 98/279/98 179/278/179 182/281/182 100/282/100
f 179/278/179 178/280/178 181/283/181 182/281/182
f 178/280/178 177/176/177 180/172/180 181/283/181
f 100/282/100 182/281/182 185/284/185 102/285/102
f 182/281/182 181/283/181 184/286/184 185/284/185
f 181/283/181 180/172/180 183/175/183 184/286/184
f 102/285/102 185/284/185 188/287/188 104/288/104
f 185/284/185 184/286/184 187/289/187 188/287/188
f 184/286/184 183/175/183 186/290/186 187/289/187
f 104/288/104 188/287/188 191/291/191 106/292/106
f 188/287/188 187/289/187 190/293/190 191/291/191
f 187/294/187 186/168/186 189/166/189 190/295/190
f 106/292/106 191/291/191 194/296/194 108/297/108
f 191/298/191 190/295/190 193/299/193 194/300/194
f 190/295/190 189/166/189 192/164/192 193/299/193
f 108/297/108 194/296/194 197/301/197 110/302/110
f 194/300/194 193/299/193 196/303/196 197/304/197
f 193/299/193 192/164/192 195/162/195 196/303/196
f 110/305/110 197/304/197 200/306/200 112/307/112
f 197/304/197 196/303/196 199/308/199 200/306/200
f 196/303/196 195/162/195 198/160/198 199/308/199
f 112/307/112 200/306/200 203/309/203 114/310/114
f 200/306/200 199/308/199 202/311/202 203/309/203
f 199/308/199 198/160/198 201/158/201 202/311/202
f 114/312/114 203/313/203 206/314/206 116/315/116
f 203/309/203 202/311/202 205/316/205 206/317/206
f 202/311/202 201/158/201 204/156/204 205/316/205
f 116/315/116 206/314/206 209/318/209 118/319/118
f 206/317/206 205/316/205 208/320/208 209/321/209
f 205/316/205 204/156/204 207/152/207 208/320/208
f 118/319/118 209/318/209 212/322/212 120/323/120
f 209/321/209 208/320/208 211/324/211 212/325/212
f 208/320/208 207/152/207 210/155/210 211/324/211
f 120/323/120 212/322/212 215/326/215 122/327/122
f 212/328/212 211/329/211 214/330/214 215/331/215
f 211/329/211 210/150/210 213/148/213 214/330/214
f 122/327/122 215/326/215 218/332/218 124/333/124
f 215/331/215 214/330/214 217/334/217 218/335/218
f 214/330/214 213/148/213 216/146/216 217/334/217
f 124/333/124 218/332/218 221/336/221 126/337/126
f 218/335/218 217/334/217 220/338/220 221/339/221
f 217/334/217 216/146/216 219/144/219 220/338/220
f 126/337/126 221/336/221 224/340/224 128/341/128
f 221/339/221 220/338/220 223/342/223 224/343/224
f 220/338/220 219/144/219 222/140/222 223/342/223
f 128/344/128 224/343/224 129/213/129 65/212/65
f 224/343/224 223/342/223 130/216/130 129/213/129
f 223/342/223 222/140/222 131/143/131 130/216/130
f 63/345/63 256/346/256 225/347/225 2/348/2
f 61/349/61 255/350/255 256/346/256 63/345/63
f 59/351/59 254/352/254 255/350/255 61/349/61
f 57/353/57 253/354/253 254/352/254 59/351/59
f 55/355/55 252/356/252 253/354/253 57/353/57
f 53/357/53 251/358/251 252/359/252 55/360/55
f 51/361/51 250/362/250 251/358/251 53/357/53
f 49/363/49 249/364/249 250/362/250 51/361/51
f 47/365/47 248/366/248 249/364/249 49/363/49
f 45/367/45 247/368/247 248/366/248 47/365/47
f 43/369/43 246/370/246 247/368/247 45/367/45
f 41/371/41 245/372/245 246/370/246 43/369/43
f 39/373/39 244/374/244 245/372/245 41/371/41
f 37/375/37 243/376/243 244/374/244 39/373/39
f 35/377/35 242/378/242 243/379/243 37/380/37
f 33/381/33 241/382/241 242/378/242 35/377/35
f 31/383/31 240/384/240 241/382/241 33/381/33
f 29/385/29 239/386/239 240/384/240 31/383/31
f 27/387/27 238/388/238 239/389/239 29/390/29
f 25/391/25 237/392/237 238/388/238 27/387/27
f 23/393/23 236/394/236 237/392/237 25/391/25
f 21/395/21 235/396/235 236/394/236 23/393/23
f 19/397/19 234/398/234 235/396/235 21/395/21
f 17/399/17 233/400/233 234/398/234 19/397/19
f 15/401/15 232/402/232 233/400/233 17/399/17
f 13/403/13 231/404/231 232/402/232 15/401/15
f 11/405/11 230/406/230 231/404/231 13/403/13
f 9/407/9 229/408/229 230/409/230 11/410/11
f 7/411/7 228/412/228 229/408/229 9/407/9
f 5/413/5 227/414/227 228/412/228 7/411/7
f 3/415/3 226/416/226 227/414/227 5/413/5
f 2/348/2 225/347/225 226/416/226 3/415/3
f 289/417/258 322/418/291 321/419/290 290/420/259
f 290/420/259 321/419/290 323/421/292 291/422/260
f 291/422/260 323/421/292 324/423/293 292/424/261
f 292/424/261 324/423/293 325/425/294 293/426/262
f 293/426/262 325/425/294 326/427/295 294/428/263
f 294/429/263 326/430/295 327/431/296 295/432/264
f 295/432/264 327/431/296 328/433/297 296/434/265
f 296/434/265 328/433/297 329/435/298 297/436/266
f 297/436/266 329/435/298 330/437/299 298/438/267
f 298/438/267 330/437/299 331/439/300 299/440/268
f 299/440/268 331/439/300 332/441/301 300/442/269
f 300/442/269 332/441/301 333/443/302 301/444/270
f 301/444/270 333/443/302 334/445/303 302/446/271
f 302/446/271 334/445/303 335/447/304 303/448/272
f 303/449/272 335/450/304 336/451/305 304/452/273
f 304/452/273 336/451/305 337/453/306 305/454/274
f 305/454/274 337/453/306 338/455/307 306/456/275
f 306/456/275 338/455/307 339/457/308 307/458/276
f 307/459/276 339/460/308 340/461/309 308/462/277
f 308/462/277 340/461/309 341/463/310 309/464/278
f 309/464/278 341/463/310 342/465/311 310/466/279
f 310/466/279 342/465/311 343/467/312 311/468/280
f 311/468/280 343/467/312 344/469/313 312/470/281
f 312/470/281 344/469/313 345/471/314 313/472/282
f 313/472/282 345/471/314 346/473/315 314/474/283
f 314/474/283 346/473/315 347/475/316 315/476/284
f 315/476/284 347/475/316 348/477/317 316/478/285
f 316/479/285 348/480/317 349/481/318 317/482/286
f 317/482/286 349/481/318 350/483/319 318/484/287
f 318/484/287 350/483/319 351/485/320 319/486/288
f 287/69/257 286/69/257 382/69/351 383/69/352
f 319/486/288 351/485/320 352/487/321 320/488/289
f 320/488/289 352/487/321 322/418/291 289/417/258
f 257/489/257 258/490/257 321/491/290 322/492/291
f 258/490/257 259/493/257 323/494/292 321/491/290
f 259/493/257 260/495/257 324/496/293 323/494/292
f 260/495/257 261/497/257 325/498/294 324/496/293
f 261/497/257 262/499/257 326/500/295 325/498/294
f 262/499/257 263/501/257 327/502/296 326/500/295
f 263/501/257 264/503/257 328/504/297 327/502/296
f 264/503/257 265/505/257 329/506/298 328/504/297
f 265/505/257 266/507/257 330/508/299 329/506/298
f 266/507/257 267/509/257 331/510/300 330/508/299
f 267/509/257 268/511/257 332/512/301 331/510/300
f 268/511/257 269/513/257 333/514/302 332/512/301
f 269/513/257 270/515/257 334/516/303 333/514/302
f 270/515/257 271/517/257 335/518/304 334/516/303
f 271/517/257 272/519/257 336/520/305 335/518/304
f 272/519/257 273/521/257 337/522/306 336/520/305
f 273/521/257 274/523/257 338/524/307 337/522/306
f 274/523/257 275/525/257 339/526/308 338/524/307
f 275/525/257 276/527/257 340/528/309 339/526/308
f 276/527/257 277/529/257 341/530/310 340/528/309
f 277/529/257 278/531/257 342/532/311 341/530/310
f 278/531/257 279/533/257 343/534/312 342/532/311
f 279/533/257 280/535/257 344/536/313 343/534/312
f 280/535/257 281/537/257 345/538/314 344/536/313
f 281/537/257 282/539/257 346/540/315 345/538/314
f 282/539/257 283/541/257 347/542/316 346/540/315
f 283/541/257 284/543/257 348/544/317 347/542/316
f 284/543/257 285/545/257 349/546/318 348/544/317
f 285/545/257 286/547/257 350/548/319 349/546/318
f 286/547/257 287/549/257 351/550/320 350/548/319
f 287/549/257 288/551/257 352/552/321 351/550/320
f 288/551/257 257/489/257 322/492/291 352/552/321
f 373/553/342 372/554/341 404/555/373 405/556/374
f 274/69/257 273/69/257 369/69/338 370/69/339
f 261/69/257 260/69/257 356/69/325 357/69/326
f 288/69/257 287/69/257 383/69/352 384/69/353
f 275/69/257 274/69/257 370/69/339 371/69/340
f 262/69/257 261/69/257 357/69/326 358/69/327
f 257/69/257 288/69/257 384/69/353 354/69/323
f 276/69/257 275/69/257 371/69/340 372/69/341
f 263/69/257 262/69/257 358/69/327 359/69/328
f 277/69/257 276/69/257 372/69/341 373/69/342
f 264/69/257 263/69/257 359/69/328 360/69/329
f 278/69/257 277/69/257 373/69/342 374/69/343
f 265/69/257 264/69/257 360/69/329 361/69/330
f 279/69/257 278/69/257 374/69/343 375/69/344
f 266/69/257 265/69/257 361/69/330 362/69/331
f 280/69/257 279/69/257 375/69/344 376/69/345
f 267/69/257 266/69/257 362/69/331 363/69/332
f 281/69/257 280/69/257 376/69/345 377/69/346
f 268/69/257 267/69/257 363/69/332 364/69/333
f 282/69/257 281/69/257 377/69/346 378/69/347
f 269/69/257 268/69/257 364/69/333 365/69/334
f 283/69/257 282/69/257 378/69/347 379/69/348
f 270/69/257 269/69/257 365/69/334 366/69/335
f 284/69/257 283/69/257 379/69/348 380/69/349
f 271/69/257 270/69/257 366/69/335 367/69/336
f 258/69/257 257/69/257 354/69/323 353/69/322
f 285/69/257 284/69/257 380/69/349 381/69/350
f 272/69/257 271/69/257 367/69/336 368/69/337
f 259/69/257 258/69/257 353/69/322 355/69/324
f 286/69/257 285/69/257 381/69/350 382/69/351
f 273/69/257 272/69/257 368/69/337 369/69/338
f 260/69/257 259/69/257 355/69/324 356/69/325
f 408/557/377 407/558/376 439/559/408 440/560/409
f 360/561/329 359/562/328 391/563/360 392/564/361
f 374/565/343 373/553/342 405/556/374 406/566/375
f 361/567/330 360/561/329 392/564/361 393/568/362
f 375/569/344 374/570/343 406/571/375 407/572/376
f 362/573/331 361/567/330 393/568/362 394/574/363
f 376/575/345 375/569/344 407/572/376 408/576/377
f 363/577/332 362/573/331 394/574/363 395/578/364
f 377/579/346 376/575/345 408/576/377 409/580/378
f 364/581/333 363/577/332 395/578/364 396/582/365
f 378/583/347 377/579/346 409/580/378 410/584/379
f 365/585/334 364/586/333 396/587/365 397/588/366
f 379/589/348 378/583/347 410/584/379 411/590/380
f 366/591/335 365/585/334 397/588/366 398/592/367
f 380/593/349 379/589/348 411/590/380 412/594/381
f 367/595/336 366/591/335 398/592/367 399/596/368
f 353/597/322 354/598/323 386/599/355 385/600/354
f 381/601/350 380/593/349 412/594/381 413/602/382
f 368/603/337 367/595/336 399/596/368 400/604/369
f 355/605/324 353/597/322 385/600/354 387/606/356
f 382/607/351 381/601/350 413/602/382 414/608/383
f 369/609/338 368/603/337 400/604/369 401/610/370
f 356/611/325 355/605/324 387/606/356 388/612/357
f 383/613/352 382/607/351 414/608/383 415/614/384
f 370/615/339 369/609/338 401/610/370 402/616/371
f 357/617/326 356/618/325 388/619/357 389/620/358
f 384/621/353 383/622/352 415/623/384 416/624/385
f 371/625/340 370/615/339 402/616/371 403/626/372
f 358/627/327 357/617/326 389/620/358 390/628/359
f 354/598/323 384/621/353 416/624/385 386/599/355
f 372/554/341 371/625/340 403/626/372 404/555/373
f 359/562/328 358/627/327 390/628/359 391/563/360
f 417/629/386 418/630/387 448/631/417 447/632/416 446/633/415 445/634/414 444/635/413 443/636/412 442/637/411 441/638/410 440/560/409 439/559/408 438/639/407 437/640/406 436/641/405 435/642/404 434/643/403 433/644/402 432/645/401 431/646/400 430/647/399 429/648/398 428/649/397 427/650/396 426/651/395 425/652/394 424/653/393 423/654/392 422/655/391 421/656/390 420/657/389 419/658/388
f 395/659/364 394/660/363 426/651/395 427/650/396
f 409/661/378 408/557/377 440/560/409 441/638/410
f 396/662/365 395/659/364 427/650/396 428/649/397
f 410/663/379 409/661/378 441/638/410 442/637/411
f 397/664/366 396/662/365 428/649/397 429/648/398
f 411/665/380 410/663/379 442/637/411 443/636/412
f 398/666/367 397/664/366 429/648/398 430/647/399
f 412/667/381 411/665/380 443/636/412 444/635/413
f 399/668/368 398/666/367 430/647/399 431/646/400
f 385/669/354 386/670/355 418/630/387 417/629/386
f 413/671/382 412/667/381 444/635/413 445/634/414
f 400/672/369 399/668/368 431/646/400 432/645/401
f 387/673/356 385/669/354 417/629/386 419/658/388
f 414/674/383 413/671/382 445/634/414 446/633/415
f 401/675/370 400/672/369 432/645/401 433/644/402
f 388/676/357 387/673/356 419/658/388 420/657/389
f 415/677/384 414/674/383 446/633/415 447/632/416
f 402/678/371 401/675/370 433/644/402 434/643/403
f 389/679/358 388/676/357 420/657/389 421/656/390
f 416/680/385 415/677/384 447/632/416 448/631/417
f 403/681/372 402/678/371 434/643/403 435/642/404
f 390/682/359 389/679/358 421/656/390 422/655/391
f 386/670/355 416/680/385 448/631/417 418/630/387
f 404/683/373 403/681/372 435/642/404 436/641/405
f 391/684/360 390/682/359 422/655/391 423/654/392
f 405/685/374 404/683/373 436/641/405 437/640/406
f 392/686/361 391/684/360 423/654/392 424/653/393
f 406/687/375 405/685/374 437/640/406 438/639/407
f 393/688/362 392/686/361 424/653/393 425/652/394
f 407/558/376 406/687/375 438/639/407 439/559/408
f 394/660/363 393/688/362 425/652/394 426/651/395
f 458/689/427 459/690/428 523/691/492 522/692/491
f 471/693/440 472/694/441 536/695/505 535/696/504
f 457/697/426 458/689/427 522/692/491 521/698/490
f 470/699/439 471/693/440 535/696/504 534/700/503
f 456/701/425 457/697/426 521/698/490 520/702/489
f 469/703/438 470/699/439 534/700/503 533/704/502
f 455/705/424 456/701/425 520/702/489 519/706/488
f 468/707/437 469/703/438 533/704/502 532/708/501
f 454/709/423 455/705/424 519/706/488 518/710/487
f 467/711/436 468/707/437 532/708/501 531/712/500
f 453/713/422 454/709/423 518/710/487 517/714/486
f 466/715/435 467/711/436 531/712/500 530/716/499
f 479/717/448 480/718/449 544/719/513 543/720/512
f 452/721/421 453/713/422 517/714/486 516/722/485
f 465/723/434 466/715/435 530/716/499 529/724/498
f 478/725/447 479/717/448 543/720/512 542/726/511
f 451/727/420 452/721/421 516/722/485 515/728/484
f 464/729/433 465/723/434 529/724/498 528/730/497
f 477/731/446 478/725/447 542/726/511 541/732/510
f 450/733/419 451/727/420 515/728/484 514/734/483
f 463/735/432 464/729/433 528/730/497 527/736/496
f 476/737/445 477/731/446 541/732/510 540/738/509
f 449/739/418 450/733/419 514/734/483 513/740/482
f 462/741/431 463/735/432 527/736/496 526/742/495
f 475/743/444 476/737/445 540/738/509 539/744/508
f 480/718/449 449/739/418 513/740/482 544/719/513
f 461/745/430 462/741/431 526/742/495 525/746/494
f 474/747/443 475/743/444 539/744/508 538/748/507
f 460/749/429 461/745/430 525/746/494 524/750/493
f 473/751/442 474/747/443 538/748/507 537/752/506
f 459/690/428 460/749/429 524/750/493 523/691/492
f 472/694/441 473/751/442 537/752/506 536/695/505
f 481/753/450 482/754/451 483/755/452 484/756/453 485/757/454 486/758/455 487/759/456 488/760/457 489/761/458 490/762/459 491/763/460 492/764/461 493/765/462 494/766/463 495/767/464 496/768/465 497/769/466 498/770/467 499/771/468 500/772/469 501/773/470 502/774/471 503/775/472 504/776/473 505/777/474 506/778/475 507/779/476 508/780/477 509/781/478 510/782/479 511/783/480 512/784/481
f 481/785/450 544/786/513 513/787/482 482/788/451
f 482/788/451 513/787/482 514/789/483 483/790/452
f 483/790/452 514/789/483 515/791/484 484/792/453
f 484/792/453 515/791/484 516/793/485 485/794/454
f 485/794/454 516/793/485 517/795/486 486/796/455
f 486/797/455 517/798/486 518/799/487 487/800/456
f 487/800/456 518/799/487 519/801/488 488/802/457
f 488/802/457 519/801/488 520/803/489 489/804/458
f 489/804/458 520/803/489 521/805/490 490/806/459
f 490/806/459 521/805/490 522/807/491 491/808/460
f 491/808/460 522/807/491 523/809/492 492/810/461
f 492/810/461 523/809/492 524/811/493 493/812/462
f 493/813/462 524/814/493 525/815/494 494/816/463
f 494/816/463 525/815/494 526/817/495 495/818/464
f 495/818/464 526/817/495 527/819/496 496/820/465
f 496/820/465 527/819/496 528/821/497 497/822/466
f 497/822/466 528/821/497 529/823/498 498/824/467
f 498/824/467 529/823/498 530/825/499 499/826/468
f 499/826/468 530/825/499 531/827/500 500/828/469
f 500/828/469 531/827/500 532/829/501 501/830/470
f 501/830/470 532/829/501 533/831/502 502/832/471
f 502/833/471 533/834/502 534/835/503 503/836/472
f 503/836/472 534/835/503 535/837/504 504/838/473
f 504/838/473 535/837/504 536/839/505 505/840/474
f 505/840/474 536/839/505 537/841/506 506/842/475
f 506/842/475 537/841/506 538/843/507 507/844/476
f 507/844/476 538/843/507 539/845/508 508/846/477
f 508/780/477 539/847/508 540/848/509 509/781/478
f 509/849/478 540/850/509 541/851/510 510/852/479
f 510/852/479 541/851/510 542/853/511 511/854/480
f 511/854/480 542/853/511 543/855/512 512/856/481
f 512/856/481 543/855/512 544/786/513 481/785/450
